<?xml version="1.0" encoding="iso-8859-1"?>
<!-- Created by CadStd Pro version 3.7.6 see : "http://www.cadstd.com" -->
<svg version="1.1" baseProfile="full" id="cadstd" preserveAspectRatio="xMidYMid meet" xml:space="preserve" style="overflow:visible" 
viewBox="0 -40800.01 52800.01 40800.01" xmlns="http://www.w3.org/2000/svg" xmlns:xlink="http://www.w3.org/1999/xlink">
<defs>
<style type="text/css"><![CDATA[
text.T1 {
stroke-linejoin:round;stroke-linecap:round;
stroke-width:0px;
font-weight: normal;
font-style: italic;
font-size:4.8in;
font-family:Sans-Serif;
text-anchor:start
}
text.T2 {
stroke-linejoin:round;stroke-linecap:round;
stroke-width:0px;
font-weight: normal;
font-style: italic;
font-size:9.6in;
font-family:Sans-Serif;
text-anchor:start
}
text.T3 {
stroke-linejoin:round;stroke-linecap:round;
stroke-width:0px;
font-weight: normal;
font-style: italic;
font-size:14.4in;
font-family:Sans-Serif;
text-anchor:start
}
text.T4 {
stroke-linejoin:round;stroke-linecap:round;
stroke-width:0px;
font-weight: bold;
font-style: italic;
font-size:19.2in;
font-family:Sans-Serif;
text-anchor:start
}
text.T5 {
stroke-linejoin:round;stroke-linecap:round;
stroke-width:0px;
font-weight: bold;
font-style: italic;
font-size:19.2in;
font-family:Sans-Serif;
text-anchor:start
}
*.L0 {
fill: none;stroke-linejoin:round;stroke-linecap: round;
stroke-width:43.2;
}
*.L1 {
fill: none;stroke-linejoin:round;stroke-linecap: round;
stroke-width:115.2;
}
*.L2 {
fill: none;stroke-linejoin:round;stroke-linecap: round;
stroke-width:43.2;
}
*.L3 {
fill: none;stroke-linejoin:round;stroke-linecap: round;
stroke-width:43.2;
stroke-dasharray:
600,150;
}
*.L4 {
fill: none;stroke-linejoin:round;stroke-linecap: round;
stroke-width:43.2;
stroke-dasharray:
3600,300,600,300;
}
*.L5 {
fill: none;stroke-linejoin:round;stroke-linecap: round;
stroke-width:115.2;
stroke-dasharray:
1200,300;
}
*.L6 {
fill: none;stroke-linejoin:round;stroke-linecap: round;
stroke-width:115.2;
stroke-dasharray:
3600,300,600,300,600,300;
}
*.L7 {
fill: none;stroke-linejoin:round;stroke-linecap: round;
stroke-width:43.2;
stroke-dasharray:
3600,300,600,300,600,300;
}
*.L8 {
fill: none;stroke-linejoin:round;stroke-linecap: round;
stroke-width:43.2;
stroke-dasharray:
300,300;
}
*.L9 {
fill: none;stroke-linejoin:round;stroke-linecap: round;
stroke-width:43.2;
stroke-dasharray:
0.01,299.99;
}
*.L10 {
fill: none;stroke-linejoin:round;stroke-linecap: round;
stroke-width:115.2;
stroke-dasharray:
1800,300,300,300;
}
*.L11 {
fill: none;stroke-linejoin:round;stroke-linecap: round;
stroke-width:0;
}
   *.Lay0 { stroke:Black }
line.Lay0, text.Lay0 { stroke:Black; fill:Black }
   *.Lay1 { stroke:Black }
line.Lay1, text.Lay1 { stroke:Black; fill:Black }
   *.Lay2 { stroke:Black }
line.Lay2, text.Lay2 { stroke:Black; fill:Black }
   *.Lay3 { stroke:Black }
line.Lay3, text.Lay3 { stroke:Black; fill:Black }
   *.Lay4 { stroke:Black }
line.Lay4, text.Lay4 { stroke:Black; fill:Black }
   *.Lay5 { stroke:Black }
line.Lay5, text.Lay5 { stroke:Black; fill:Black }
   *.Lay6 { stroke:Black }
line.Lay6, text.Lay6 { stroke:Black; fill:Black }
   *.Lay7 { stroke:Black }
line.Lay7, text.Lay7 { stroke:Black; fill:Black }
   *.Lay8 { stroke:Black }
line.Lay8, text.Lay8 { stroke:Black; fill:Black }
   *.Lay9 { stroke:Black }
line.Lay9, text.Lay9 { stroke:Black; fill:Black }
   *.Lay10 { stroke:Black }
line.Lay10, text.Lay10 { stroke:Black; fill:Black }
   *.Lay11 { stroke:Black }
line.Lay11, text.Lay11 { stroke:Black; fill:Black }
   *.Lay12 { stroke:Black }
line.Lay12, text.Lay12 { stroke:Black; fill:Black }
   *.Lay13 { stroke:Black }
line.Lay13, text.Lay13 { stroke:Black; fill:Black }
   *.Lay14 { stroke:Black }
line.Lay14, text.Lay14 { stroke:Black; fill:Black }
   *.Lay15 { stroke:Black }
line.Lay15, text.Lay15 { stroke:Black; fill:Black }
]]>
</style>
</defs>
<g transform="scale(1.0),translate(-23476.86,19306.05)">
<line class="Lay0 L2" x1="68700" y1="-28000" x2="68700" y2="-56200"/>
<line class="Lay0 L2" x1="68700" y1="-56200" x2="66300" y2="-56200"/>
<line class="Lay0 L2" x1="66500" y1="-28200" x2="68500" y2="-28200"/>
<line class="Lay0 L2" x1="66500" y1="-28800" x2="68500" y2="-28800"/>
<line class="Lay0 L2" x1="66500" y1="-29400" x2="68500" y2="-29400"/>
<line class="Lay0 L2" x1="66500" y1="-30000" x2="68500" y2="-30000"/>
<line class="Lay0 L2" x1="66500" y1="-30600" x2="68500" y2="-30600"/>
<line class="Lay0 L2" x1="66500" y1="-31200" x2="68500" y2="-31200"/>
<line class="Lay0 L2" x1="66500" y1="-31800" x2="68500" y2="-31800"/>
<line class="Lay0 L2" x1="66500" y1="-32400" x2="68500" y2="-32400"/>
<line class="Lay0 L2" x1="66500" y1="-33000" x2="68500" y2="-33000"/>
<line class="Lay0 L2" x1="66500" y1="-33600" x2="68500" y2="-33600"/>
<line class="Lay0 L2" x1="66500" y1="-34200" x2="68500" y2="-34200"/>
<line class="Lay0 L2" x1="66500" y1="-34800" x2="68500" y2="-34800"/>
<line class="Lay0 L2" x1="66500" y1="-35400" x2="68500" y2="-35400"/>
<line class="Lay0 L2" x1="66500" y1="-36000" x2="68500" y2="-36000"/>
<line class="Lay0 L2" x1="66500" y1="-36600" x2="68500" y2="-36600"/>
<line class="Lay0 L2" x1="66500" y1="-37200" x2="68500" y2="-37200"/>
<line class="Lay0 L2" x1="66500" y1="-37800" x2="68500" y2="-37800"/>
<line class="Lay0 L2" x1="66500" y1="-38400" x2="68500" y2="-38400"/>
<line class="Lay0 L2" x1="66500" y1="-39000" x2="68500" y2="-39000"/>
<line class="Lay0 L2" x1="66500" y1="-39600" x2="68500" y2="-39600"/>
<line class="Lay0 L2" x1="66500" y1="-40200" x2="68500" y2="-40200"/>
<line class="Lay0 L2" x1="66500" y1="-40800" x2="68500" y2="-40800"/>
<line class="Lay0 L2" x1="66500" y1="-41400" x2="68500" y2="-41400"/>
<line class="Lay0 L2" x1="66500" y1="-42000" x2="68500" y2="-42000"/>
<line class="Lay0 L2" x1="66500" y1="-42600" x2="68500" y2="-42600"/>
<line class="Lay0 L2" x1="66500" y1="-43200" x2="68500" y2="-43200"/>
<line class="Lay0 L2" x1="66500" y1="-43800" x2="68500" y2="-43800"/>
<line class="Lay0 L2" x1="66500" y1="-48000" x2="68500" y2="-48000"/>
<line class="Lay0 L2" x1="66500" y1="-48600" x2="68500" y2="-48600"/>
<line class="Lay0 L2" x1="66500" y1="-49200" x2="68500" y2="-49200"/>
<line class="Lay0 L2" x1="66500" y1="-49800" x2="68500" y2="-49800"/>
<line class="Lay0 L2" x1="66500" y1="-50400" x2="68500" y2="-50400"/>
<line class="Lay0 L2" x1="66500" y1="-51000" x2="68500" y2="-51000"/>
<line class="Lay0 L2" x1="66500" y1="-51600" x2="68500" y2="-51600"/>
<line class="Lay0 L2" x1="66500" y1="-52200" x2="68500" y2="-52200"/>
<line class="Lay0 L2" x1="66500" y1="-52800" x2="68500" y2="-52800"/>
<line class="Lay0 L2" x1="66500" y1="-53400" x2="68500" y2="-53400"/>
<line class="Lay0 L2" x1="66500" y1="-54000" x2="68500" y2="-54000"/>
<line class="Lay0 L2" x1="66500" y1="-54600" x2="68500" y2="-54600"/>
<line class="Lay0 L2" x1="66500" y1="-55200" x2="68500" y2="-55200"/>
<line class="Lay0 L2" x1="66500" y1="-55800" x2="68500" y2="-55800"/>
<line class="Lay0 L2" x1="68500" y1="-56000" x2="66500" y2="-56000"/>
<line class="Lay0 L2" x1="65900" y1="-21700" x2="60900" y2="-21700"/>
<line class="Lay0 L2" x1="65900" y1="-22300" x2="60900" y2="-22300"/>
<line class="Lay0 L2" x1="65900" y1="-22900" x2="60900" y2="-22900"/>
<line class="Lay0 L2" x1="65900" y1="-23500" x2="60900" y2="-23500"/>
<line class="Lay0 L2" x1="65900" y1="-24100" x2="60900" y2="-24100"/>
<line class="Lay0 L2" x1="65900" y1="-24700" x2="60900" y2="-24700"/>
<line class="Lay0 L2" x1="65900" y1="-25300" x2="60900" y2="-25300"/>
<line class="Lay0 L2" x1="65900" y1="-25900" x2="60900" y2="-25900"/>
<line class="Lay0 L2" x1="65900" y1="-26500" x2="60900" y2="-26500"/>
<line class="Lay0 L2" x1="65900" y1="-27100" x2="60900" y2="-27100"/>
<line class="Lay0 L2" x1="65900" y1="-27700" x2="60900" y2="-27700"/>
<line class="Lay0 L2" x1="65900" y1="-28300" x2="60900" y2="-28300"/>
<line class="Lay0 L2" x1="65900" y1="-28900" x2="60900" y2="-28900"/>
<line class="Lay0 L2" x1="65900" y1="-29500" x2="60900" y2="-29500"/>
<line class="Lay0 L2" x1="65900" y1="-30100" x2="60900" y2="-30100"/>
<line class="Lay0 L2" x1="65900" y1="-30700" x2="60900" y2="-30700"/>
<line class="Lay0 L2" x1="65900" y1="-31300" x2="60900" y2="-31300"/>
<line class="Lay0 L2" x1="65900" y1="-31900" x2="60900" y2="-31900"/>
<line class="Lay0 L2" x1="65900" y1="-32500" x2="60900" y2="-32500"/>
<line class="Lay0 L2" x1="56400" y1="-22200" x2="59700" y2="-22200"/>
<line class="Lay0 L2" x1="54800" y1="-22200" x2="51500" y2="-22200"/>
<line class="Lay0 L2" x1="68700" y1="-28000" x2="66300" y2="-28000"/>
<line class="Lay0 L2" x1="59700" y1="-29800" x2="56400" y2="-29800"/>
<line class="Lay0 L2" x1="51500" y1="-22200" x2="51500" y2="-29800"/>
<line class="Lay0 L2" x1="54800" y1="-22200" x2="54800" y2="-29800"/>
<line class="Lay0 L2" x1="51500" y1="-29800" x2="54800" y2="-29800"/>
<line class="Lay0 L2" x1="53700" y1="-22200" x2="53700" y2="-29800"/>
<line class="Lay0 L2" x1="52600" y1="-22200" x2="52600" y2="-29800"/>
<line class="Lay0 L2" x1="55600" y1="-30500" x2="50700" y2="-30500"/>
<line class="Lay0 L2" x1="55600" y1="-30500" x2="60500" y2="-30500"/>
<line class="Lay0 L2" x1="56400" y1="-31100" x2="59700" y2="-31100"/>
<line class="Lay0 L2" x1="56400" y1="-22200" x2="56400" y2="-29800"/>
<line class="Lay0 L2" x1="57500" y1="-22200" x2="57500" y2="-29800"/>
<line class="Lay0 L2" x1="58600" y1="-22200" x2="58600" y2="-29800"/>
<line class="Lay0 L2" x1="59700" y1="-22200" x2="59700" y2="-29800"/>
<line class="Lay0 L2" x1="54800" y1="-31100" x2="51500" y2="-31100"/>
<line class="Lay0 L2" x1="54800" y1="-23720" x2="51500" y2="-23720"/>
<line class="Lay0 L2" x1="54800" y1="-25240" x2="51500" y2="-25240"/>
<line class="Lay0 L2" x1="54800" y1="-26760" x2="51500" y2="-26760"/>
<line class="Lay0 L2" x1="54800" y1="-28280" x2="51500" y2="-28280"/>
<line class="Lay0 L2" x1="56400" y1="-23720" x2="59700" y2="-23720"/>
<line class="Lay0 L2" x1="56400" y1="-25240" x2="59700" y2="-25240"/>
<line class="Lay0 L2" x1="56400" y1="-26760" x2="59700" y2="-26760"/>
<line class="Lay0 L2" x1="56400" y1="-28280" x2="59700" y2="-28280"/>
<line class="Lay0 L2" x1="65900" y1="-21400" x2="65900" y2="-33400"/>
<line class="Lay0 L2" x1="60900" y1="-21400" x2="60900" y2="-33400"/>
<line class="Lay0 L2" x1="50300" y1="-21400" x2="50300" y2="-33400"/>
<line class="Lay0 L2" x1="65900" y1="-31900" x2="60900" y2="-31900"/>
<line class="Lay0 L2" x1="65900" y1="-32500" x2="60900" y2="-32500"/>
<line class="Lay0 L2" x1="65900" y1="-33100" x2="60900" y2="-33100"/>
<line class="Lay0 L2" x1="60500" y1="-33000" x2="50700" y2="-33000"/>
<line class="Lay0 L2" x1="50700" y1="-33000" x2="50700" y2="-21400"/>
<line class="Lay0 L2" x1="60500" y1="-33000" x2="60500" y2="-21400"/>
<line class="Lay0 L2" x1="59700" y1="-32380" x2="56400" y2="-32380"/>
<line class="Lay0 L2" x1="55600" y1="-33000" x2="55600" y2="-21400"/>
<line class="Lay0 L2" x1="51500" y1="-32380" x2="54800" y2="-32380"/>
<line class="Lay0 L2" x1="56400" y1="-31100" x2="56400" y2="-32380"/>
<line class="Lay0 L2" x1="57500" y1="-31100" x2="57500" y2="-32380"/>
<line class="Lay0 L2" x1="58600" y1="-31100" x2="58600" y2="-32380"/>
<line class="Lay0 L2" x1="59700" y1="-31100" x2="59700" y2="-32380"/>
<line class="Lay0 L2" x1="54800" y1="-31100" x2="54800" y2="-32380"/>
<line class="Lay0 L2" x1="53700" y1="-31100" x2="53700" y2="-32380"/>
<line class="Lay0 L2" x1="52600" y1="-31100" x2="52600" y2="-32380"/>
<line class="Lay0 L2" x1="51500" y1="-31100" x2="51500" y2="-32380"/>
<line class="Lay0 L2" x1="50300" y1="-34600" x2="50300" y2="-38500"/>
<line class="Lay0 L2" x1="50700" y1="-34600" x2="50700" y2="-38500"/>
<line class="Lay0 L2" x1="60900" y1="-34600" x2="60900" y2="-38500"/>
<line class="Lay0 L2" x1="60500" y1="-34600" x2="60500" y2="-38500"/>
<line class="Lay0 L2" x1="60500" y1="-38082.6" x2="50700" y2="-38082.6"/>
<line class="Lay0 L2" x1="60500" y1="-37882.6" x2="50700" y2="-37882.6"/>
<line class="Lay0 L2" x1="60500" y1="-35282.6" x2="50700" y2="-35282.6"/>
<line class="Lay0 L2" x1="60500" y1="-35082.6" x2="50700" y2="-35082.6"/>
<line class="Lay0 L2" x1="55650" y1="-37882.6" x2="55650" y2="-35282.6"/>
<line class="Lay0 L2" x1="55550" y1="-37882.6" x2="55550" y2="-35282.6"/>
<line class="Lay0 L2" x1="54950" y1="-37882.6" x2="54950" y2="-35282.6"/>
<line class="Lay0 L2" x1="55050" y1="-37882.6" x2="55050" y2="-35282.6"/>
<line class="Lay0 L2" x1="54350" y1="-37882.6" x2="54350" y2="-35282.6"/>
<line class="Lay0 L2" x1="54450" y1="-37882.6" x2="54450" y2="-35282.6"/>
<line class="Lay0 L2" x1="53750" y1="-37882.6" x2="53750" y2="-35282.6"/>
<line class="Lay0 L2" x1="53850" y1="-37882.6" x2="53850" y2="-35282.6"/>
<line class="Lay0 L2" x1="53150" y1="-37882.6" x2="53150" y2="-35282.6"/>
<line class="Lay0 L2" x1="53250" y1="-37882.6" x2="53250" y2="-35282.6"/>
<line class="Lay0 L2" x1="52550" y1="-37882.6" x2="52550" y2="-35282.6"/>
<line class="Lay0 L2" x1="52650" y1="-37882.6" x2="52650" y2="-35282.6"/>
<line class="Lay0 L2" x1="51950" y1="-37882.6" x2="51950" y2="-35282.6"/>
<line class="Lay0 L2" x1="52050" y1="-37882.6" x2="52050" y2="-35282.6"/>
<line class="Lay0 L2" x1="51350" y1="-37882.6" x2="51350" y2="-35282.6"/>
<line class="Lay0 L2" x1="51450" y1="-37882.6" x2="51450" y2="-35282.6"/>
<line class="Lay0 L2" x1="50850" y1="-37882.6" x2="50850" y2="-35282.6"/>
<line class="Lay0 L2" x1="50750" y1="-37882.6" x2="50750" y2="-35282.6"/>
<line class="Lay0 L2" x1="56150" y1="-37882.6" x2="56150" y2="-35282.6"/>
<line class="Lay0 L2" x1="56250" y1="-37882.6" x2="56250" y2="-35282.6"/>
<line class="Lay0 L2" x1="56750" y1="-37882.6" x2="56750" y2="-35282.6"/>
<line class="Lay0 L2" x1="56850" y1="-37882.6" x2="56850" y2="-35282.6"/>
<line class="Lay0 L2" x1="57350" y1="-37882.6" x2="57350" y2="-35282.6"/>
<line class="Lay0 L2" x1="57450" y1="-37882.6" x2="57450" y2="-35282.6"/>
<line class="Lay0 L2" x1="57950" y1="-37882.6" x2="57950" y2="-35282.6"/>
<line class="Lay0 L2" x1="58050" y1="-37882.6" x2="58050" y2="-35282.6"/>
<line class="Lay0 L2" x1="58550" y1="-37882.6" x2="58550" y2="-35282.6"/>
<line class="Lay0 L2" x1="58650" y1="-37882.6" x2="58650" y2="-35282.6"/>
<line class="Lay0 L2" x1="59150" y1="-37882.6" x2="59150" y2="-35282.6"/>
<line class="Lay0 L2" x1="59250" y1="-37882.6" x2="59250" y2="-35282.6"/>
<line class="Lay0 L2" x1="59750" y1="-37882.6" x2="59750" y2="-35282.6"/>
<line class="Lay0 L2" x1="59850" y1="-37882.6" x2="59850" y2="-35282.6"/>
<line class="Lay0 L2" x1="60350" y1="-37882.6" x2="60350" y2="-35282.6"/>
<line class="Lay0 L2" x1="60450" y1="-37882.6" x2="60450" y2="-35282.6"/>
<line class="Lay0 L2" x1="63500" y1="-37882.6" x2="63500" y2="-35282.6"/>
<line class="Lay0 L2" x1="63400" y1="-37882.6" x2="63400" y2="-35282.6"/>
<line class="Lay0 L2" x1="62800" y1="-37882.6" x2="62800" y2="-35282.6"/>
<line class="Lay0 L2" x1="62900" y1="-37882.6" x2="62900" y2="-35282.6"/>
<line class="Lay0 L2" x1="62200" y1="-37882.6" x2="62200" y2="-35282.6"/>
<line class="Lay0 L2" x1="62300" y1="-37882.6" x2="62300" y2="-35282.6"/>
<line class="Lay0 L2" x1="61600" y1="-37882.6" x2="61600" y2="-35282.6"/>
<line class="Lay0 L2" x1="61700" y1="-37882.6" x2="61700" y2="-35282.6"/>
<line class="Lay0 L2" x1="61000" y1="-37882.6" x2="61000" y2="-35282.6"/>
<line class="Lay0 L2" x1="61100" y1="-37882.6" x2="61100" y2="-35282.6"/>
<line class="Lay0 L2" x1="64100" y1="-37882.6" x2="64100" y2="-35282.6"/>
<line class="Lay0 L2" x1="64000" y1="-37882.6" x2="64000" y2="-35282.6"/>
<line class="Lay0 L2" x1="64700" y1="-37882.6" x2="64700" y2="-35282.6"/>
<line class="Lay0 L2" x1="64600" y1="-37882.6" x2="64600" y2="-35282.6"/>
<line class="Lay0 L2" x1="65300" y1="-37882.6" x2="65300" y2="-35282.6"/>
<line class="Lay0 L2" x1="65200" y1="-37882.6" x2="65200" y2="-35282.6"/>
<line class="Lay0 L2" x1="65900" y1="-39087.18" x2="60900" y2="-39087.18"/>
<line class="Lay0 L2" x1="65900" y1="-39687.18" x2="60900" y2="-39687.18"/>
<line class="Lay0 L2" x1="65900" y1="-40287.18" x2="60900" y2="-40287.18"/>
<line class="Lay0 L2" x1="65900" y1="-40887.18" x2="60900" y2="-40887.18"/>
<line class="Lay0 L2" x1="65900" y1="-41487.18" x2="60900" y2="-41487.18"/>
<line class="Lay0 L2" x1="65900" y1="-42087.18" x2="60900" y2="-42087.18"/>
<line class="Lay0 L2" x1="65900" y1="-42687.18" x2="60900" y2="-42687.18"/>
<line class="Lay0 L2" x1="59700" y1="-42987.18" x2="56400" y2="-42987.18"/>
<line class="Lay0 L2" x1="51500" y1="-42987.18" x2="54800" y2="-42987.18"/>
<line class="Lay0 L2" x1="55600" y1="-43687.18" x2="50700" y2="-43687.18"/>
<line class="Lay0 L2" x1="55600" y1="-43687.18" x2="60500" y2="-43687.18"/>
<line class="Lay0 L2" x1="54800" y1="-38427.18" x2="51500" y2="-38427.18"/>
<line class="Lay0 L2" x1="54800" y1="-39947.18" x2="51500" y2="-39947.18"/>
<line class="Lay0 L2" x1="54800" y1="-41467.18" x2="51500" y2="-41467.18"/>
<line class="Lay0 L2" x1="56400" y1="-38427.18" x2="59700" y2="-38427.18"/>
<line class="Lay0 L2" x1="56400" y1="-39947.18" x2="59700" y2="-39947.18"/>
<line class="Lay0 L2" x1="56400" y1="-41467.18" x2="59700" y2="-41467.18"/>
<line class="Lay0 L2" x1="50700" y1="-43687.18" x2="50700" y2="-38500"/>
<line class="Lay0 L2" x1="60500" y1="-43687.18" x2="60500" y2="-38500"/>
<line class="Lay0 L2" x1="60900" y1="-38500" x2="60900" y2="-44287.18"/>
<line class="Lay0 L2" x1="50300" y1="-38500" x2="50300" y2="-44287.18"/>
<line class="Lay0 L2" x1="50200" y1="-22267.86" x2="50200" y2="-21400"/>
<line class="Lay0 L2" x1="50300" y1="-22342.86" x2="50300" y2="-22267.86"/>
<line class="Lay0 L2" x1="48899.99" y1="-22342.86" x2="48899.99" y2="-22267.86"/>
<line class="Lay0 L2" x1="50300" y1="-22342.86" x2="48899.99" y2="-22342.86"/>
<line class="Lay0 L2" x1="50300" y1="-22267.86" x2="48899.99" y2="-22267.86"/>
<line class="Lay0 L2" x1="48999.99" y1="-23210.72" x2="48999.99" y2="-22342.86"/>
<line class="Lay0 L2" x1="49099.99" y1="-23285.72" x2="49099.99" y2="-23210.72"/>
<line class="Lay0 L2" x1="47699.98" y1="-23285.72" x2="47699.98" y2="-23210.72"/>
<line class="Lay0 L2" x1="49099.99" y1="-23285.72" x2="47699.98" y2="-23285.72"/>
<line class="Lay0 L2" x1="49099.99" y1="-23210.72" x2="47699.98" y2="-23210.72"/>
<line class="Lay0 L2" x1="47799.99" y1="-24153.58" x2="47799.99" y2="-23285.72"/>
<line class="Lay0 L2" x1="47899.99" y1="-24228.58" x2="47899.99" y2="-24153.58"/>
<line class="Lay0 L2" x1="46499.98" y1="-24228.58" x2="46499.98" y2="-24153.58"/>
<line class="Lay0 L2" x1="47899.99" y1="-24228.58" x2="46499.98" y2="-24228.58"/>
<line class="Lay0 L2" x1="47899.99" y1="-24153.58" x2="46499.98" y2="-24153.58"/>
<line class="Lay0 L2" x1="46599.99" y1="-25096.44" x2="46599.99" y2="-24228.58"/>
<line class="Lay0 L2" x1="46699.99" y1="-25171.44" x2="46699.99" y2="-25096.44"/>
<line class="Lay0 L2" x1="45299.98" y1="-25171.44" x2="45299.98" y2="-25096.44"/>
<line class="Lay0 L2" x1="46699.99" y1="-25171.44" x2="45299.98" y2="-25171.44"/>
<line class="Lay0 L2" x1="46699.99" y1="-25096.44" x2="45299.98" y2="-25096.44"/>
<line class="Lay0 L2" x1="45399.98" y1="-26039.3" x2="45399.98" y2="-25171.44"/>
<line class="Lay0 L2" x1="45499.98" y1="-26114.3" x2="45499.98" y2="-26039.3"/>
<line class="Lay0 L2" x1="44099.97" y1="-26114.3" x2="44099.97" y2="-26039.3"/>
<line class="Lay0 L2" x1="45499.98" y1="-26039.3" x2="44099.97" y2="-26039.3"/>
<line class="Lay0 L2" x1="50200" y1="-21400" x2="66300" y2="-21400"/>
<line class="Lay0 L2" x1="44199.97" y1="-26982.16" x2="44199.97" y2="-26114.3"/>
<line class="Lay0 L2" x1="44299.97" y1="-27057.16" x2="44299.97" y2="-26982.16"/>
<line class="Lay0 L2" x1="42899.96" y1="-27057.16" x2="42899.96" y2="-26982.16"/>
<line class="Lay0 L2" x1="44299.97" y1="-26982.16" x2="42899.96" y2="-26982.16"/>
<line class="Lay0 L2" x1="45499.98" y1="-26114.3" x2="44099.97" y2="-26114.3"/>
<line class="Lay0 L2" x1="50250" y1="-38500" x2="50750" y2="-38500"/>
<line class="Lay0 L2" x1="50250" y1="-34900" x2="50750" y2="-34900"/>
<circle class="Lay0 L2" cx="50500" cy="-38750" r="200"/>
<line class="Lay0 L2" x1="50400" y1="-38576.79" x2="50400" y2="-38576.79"/>
<line class="Lay0 L2" x1="50250" y1="-34850" x2="50750" y2="-34850"/>
<line class="Lay0 L2" x1="50250" y1="-38450" x2="50750" y2="-38450"/>
<line class="Lay0 L2" x1="50250" y1="-38500" x2="50250" y2="-38450"/>
<line class="Lay0 L2" x1="50750" y1="-38500" x2="50750" y2="-38450"/>
<line class="Lay0 L2" x1="50250" y1="-34900" x2="50250" y2="-34850"/>
<line class="Lay0 L2" x1="50750" y1="-34900" x2="50750" y2="-34850"/>
<path class="Lay0 L2" d="M 50300,-38500 A 459.572669983437,459.572669983437 0 0,0 50415.43,-38568.76"/>
<path class="Lay0 L2" d="M 50584.57,-38568.76 A 459.572669983437,459.572669983437 0 0,0 50700,-38500"/>
<line class="Lay0 L2" x1="60450" y1="-38500" x2="60950" y2="-38500"/>
<line class="Lay0 L2" x1="60450" y1="-34900" x2="60950" y2="-34900"/>
<circle class="Lay0 L2" cx="60700" cy="-38750" r="200"/>
<line class="Lay0 L2" x1="60600" y1="-38576.79" x2="60600" y2="-38576.79"/>
<line class="Lay0 L2" x1="60450" y1="-34850" x2="60950" y2="-34850"/>
<line class="Lay0 L2" x1="60450" y1="-38450" x2="60950" y2="-38450"/>
<line class="Lay0 L2" x1="60450" y1="-38500" x2="60450" y2="-38450"/>
<line class="Lay0 L2" x1="60950" y1="-38500" x2="60950" y2="-38450"/>
<line class="Lay0 L2" x1="60450" y1="-34900" x2="60450" y2="-34850"/>
<line class="Lay0 L2" x1="60950" y1="-34900" x2="60950" y2="-34850"/>
<path class="Lay0 L2" d="M 60500,-38500 A 459.572669983437,459.572669983437 0 0,0 60615.43,-38568.76"/>
<path class="Lay0 L2" d="M 60784.57,-38568.76 A 459.572669983437,459.572669983437 0 0,0 60900,-38500"/>
<line class="Lay0 L2" x1="55360" y1="-50127.18" x2="55360" y2="-52287.18"/>
<line class="Lay0 L2" x1="55360" y1="-52287.18" x2="55840" y2="-52287.18"/>
<line class="Lay0 L2" x1="55360" y1="-52127.18" x2="55840" y2="-52127.18"/>
<line class="Lay0 L2" x1="55360" y1="-51807.18" x2="55840" y2="-51807.18"/>
<line class="Lay0 L2" x1="55360" y1="-51647.18" x2="55840" y2="-51647.18"/>
<line class="Lay0 L2" x1="55360" y1="-50127.18" x2="55840" y2="-50127.18"/>
<line class="Lay0 L2" x1="55360" y1="-50287.18" x2="55840" y2="-50287.18"/>
<line class="Lay0 L2" x1="55360" y1="-50607.18" x2="55840" y2="-50607.18"/>
<line class="Lay0 L2" x1="55360" y1="-50767.18" x2="55840" y2="-50767.18"/>
<path class="Lay0 L2" d="M 60900,-44287.18 A 5300,5300 0 0,0 50300,-44287.18"/>
<line class="Lay0 L2" x1="49820" y1="-44587.18" x2="49820" y2="-46747.18"/>
<line class="Lay0 L2" x1="49820" y1="-46747.18" x2="50300" y2="-46747.18"/>
<line class="Lay0 L2" x1="49820" y1="-46587.18" x2="50300" y2="-46587.18"/>
<line class="Lay0 L2" x1="49820" y1="-46267.18" x2="50300" y2="-46267.18"/>
<line class="Lay0 L2" x1="49820" y1="-46107.18" x2="50300" y2="-46107.18"/>
<line class="Lay0 L2" x1="49820" y1="-44587.18" x2="50300" y2="-44587.18"/>
<line class="Lay0 L2" x1="49820" y1="-44747.18" x2="50300" y2="-44747.18"/>
<line class="Lay0 L2" x1="49820" y1="-45067.18" x2="50300" y2="-45067.18"/>
<line class="Lay0 L2" x1="49820" y1="-45227.18" x2="50300" y2="-45227.18"/>
<line class="Lay0 L2" x1="50300" y1="-47287.18" x2="50300" y2="-44587.18"/>
<line class="Lay0 L2" x1="61380" y1="-44587.18" x2="61380" y2="-46747.18"/>
<line class="Lay0 L2" x1="61380" y1="-46747.18" x2="60900" y2="-46747.18"/>
<line class="Lay0 L2" x1="61380" y1="-46587.18" x2="60900" y2="-46587.18"/>
<line class="Lay0 L2" x1="61380" y1="-46267.18" x2="60900" y2="-46267.18"/>
<line class="Lay0 L2" x1="61380" y1="-46107.18" x2="60900" y2="-46107.18"/>
<line class="Lay0 L2" x1="61380" y1="-44587.18" x2="60900" y2="-44587.18"/>
<line class="Lay0 L2" x1="61380" y1="-44747.18" x2="60900" y2="-44747.18"/>
<line class="Lay0 L2" x1="61380" y1="-45067.18" x2="60900" y2="-45067.18"/>
<line class="Lay0 L2" x1="61380" y1="-45227.18" x2="60900" y2="-45227.18"/>
<line class="Lay0 L2" x1="60900" y1="-47287.18" x2="60900" y2="-44587.18"/>
<line class="Lay0 L2" x1="63900" y1="-44287.18" x2="55600" y2="-52587.18"/>
<line class="Lay0 L2" x1="64148.52" y1="-44887.18" x2="55600" y2="-53435.7"/>
<line class="Lay0 L2" x1="65900" y1="-43287.18" x2="60900" y2="-43287.18"/>
<line class="Lay0 L2" x1="65900" y1="-43887.18" x2="60900" y2="-43887.18"/>
<line class="Lay0 L2" x1="64148.52" y1="-44887.18" x2="68700" y2="-44887.18"/>
<line class="Lay0 L2" x1="66500" y1="-44287.18" x2="66500" y2="-28000"/>
<line class="Lay0 L2" x1="68500" y1="-44287.18" x2="68500" y2="-28000"/>
<line class="Lay0 L2" x1="45300" y1="-26500" x2="50300" y2="-26500"/>
<line class="Lay0 L2" x1="45300" y1="-27100" x2="50300" y2="-27100"/>
<line class="Lay0 L2" x1="45300" y1="-27700" x2="50300" y2="-27700"/>
<line class="Lay0 L2" x1="45300" y1="-28300" x2="50300" y2="-28300"/>
<line class="Lay0 L2" x1="45300" y1="-28900" x2="50300" y2="-28900"/>
<line class="Lay0 L2" x1="45300" y1="-29500" x2="50300" y2="-29500"/>
<line class="Lay0 L2" x1="45300" y1="-30100" x2="50300" y2="-30100"/>
<line class="Lay0 L2" x1="45300" y1="-30700" x2="50300" y2="-30700"/>
<line class="Lay0 L2" x1="45300" y1="-31300" x2="50300" y2="-31300"/>
<line class="Lay0 L2" x1="45300" y1="-31900" x2="50300" y2="-31900"/>
<line class="Lay0 L2" x1="45300" y1="-32500" x2="50300" y2="-32500"/>
<line class="Lay0 L2" x1="45300" y1="-31900" x2="50300" y2="-31900"/>
<line class="Lay0 L2" x1="45300" y1="-32500" x2="50300" y2="-32500"/>
<line class="Lay0 L2" x1="45300" y1="-33100" x2="50300" y2="-33100"/>
<line class="Lay0 L2" x1="47700" y1="-37882.6" x2="47700" y2="-35282.6"/>
<line class="Lay0 L2" x1="47800" y1="-37882.6" x2="47800" y2="-35282.6"/>
<line class="Lay0 L2" x1="48400" y1="-37882.6" x2="48400" y2="-35282.6"/>
<line class="Lay0 L2" x1="48300" y1="-37882.6" x2="48300" y2="-35282.6"/>
<line class="Lay0 L2" x1="49000" y1="-37882.6" x2="49000" y2="-35282.6"/>
<line class="Lay0 L2" x1="48900" y1="-37882.6" x2="48900" y2="-35282.6"/>
<line class="Lay0 L2" x1="49600" y1="-37882.6" x2="49600" y2="-35282.6"/>
<line class="Lay0 L2" x1="49500" y1="-37882.6" x2="49500" y2="-35282.6"/>
<line class="Lay0 L2" x1="50200" y1="-37882.6" x2="50200" y2="-35282.6"/>
<line class="Lay0 L2" x1="50100" y1="-37882.6" x2="50100" y2="-35282.6"/>
<line class="Lay0 L2" x1="47100" y1="-37882.6" x2="47100" y2="-35282.6"/>
<line class="Lay0 L2" x1="47200" y1="-37882.6" x2="47200" y2="-35282.6"/>
<line class="Lay0 L2" x1="46500" y1="-37882.6" x2="46500" y2="-35282.6"/>
<line class="Lay0 L2" x1="46600" y1="-37882.6" x2="46600" y2="-35282.6"/>
<line class="Lay0 L2" x1="45900" y1="-37882.6" x2="45900" y2="-35282.6"/>
<line class="Lay0 L2" x1="46000" y1="-37882.6" x2="46000" y2="-35282.6"/>
<line class="Lay0 L2" x1="45300" y1="-39087.18" x2="50300" y2="-39087.18"/>
<line class="Lay0 L2" x1="45300" y1="-39687.18" x2="50300" y2="-39687.18"/>
<line class="Lay0 L2" x1="45300" y1="-40287.18" x2="50300" y2="-40287.18"/>
<line class="Lay0 L2" x1="45300" y1="-40887.18" x2="50300" y2="-40887.18"/>
<line class="Lay0 L2" x1="45300" y1="-41487.18" x2="50300" y2="-41487.18"/>
<line class="Lay0 L2" x1="45300" y1="-42087.18" x2="50300" y2="-42087.18"/>
<line class="Lay0 L2" x1="45300" y1="-42687.18" x2="50300" y2="-42687.18"/>
<line class="Lay0 L2" x1="47300" y1="-44287.18" x2="55600" y2="-52587.18"/>
<line class="Lay0 L2" x1="47051.48" y1="-44887.18" x2="55600" y2="-53435.7"/>
<line class="Lay0 L2" x1="45300" y1="-43287.18" x2="50300" y2="-43287.18"/>
<line class="Lay0 L2" x1="45300" y1="-43887.18" x2="50300" y2="-43887.18"/>
<line class="Lay0 L2" x1="45300" y1="-33400" x2="45300" y2="-26114.3"/>
<line class="Lay0 L2" x1="50300" y1="-25900" x2="45399.98" y2="-25900"/>
<line class="Lay0 L2" x1="50300" y1="-25300" x2="45399.98" y2="-25300"/>
<line class="Lay0 L2" x1="50300" y1="-24700" x2="46599.99" y2="-24700"/>
<line class="Lay0 L2" x1="50300" y1="-24100" x2="47799.99" y2="-24100"/>
<line class="Lay0 L2" x1="50300" y1="-23500" x2="47799.99" y2="-23500"/>
<line class="Lay0 L2" x1="50300" y1="-22900" x2="48999.99" y2="-22900"/>
<line class="Lay0 L2" x1="66200.27" y1="-34600" x2="66200.27" y2="-38500"/>
<line class="Lay0 L2" x1="65800.27" y1="-34600" x2="65800.27" y2="-38500"/>
<line class="Lay0 L2" x1="65750.27" y1="-38500" x2="66250.27" y2="-38500"/>
<line class="Lay0 L2" x1="65750.27" y1="-34900" x2="66250.27" y2="-34900"/>
<circle class="Lay0 L2" cx="66000.27" cy="-38750" r="200"/>
<line class="Lay0 L2" x1="65900.27" y1="-38576.79" x2="65900.27" y2="-38576.79"/>
<line class="Lay0 L2" x1="65750.27" y1="-34850" x2="66250.27" y2="-34850"/>
<line class="Lay0 L2" x1="65750.27" y1="-38450" x2="66250.27" y2="-38450"/>
<line class="Lay0 L2" x1="65750.27" y1="-38500" x2="65750.27" y2="-38450"/>
<line class="Lay0 L2" x1="66250.27" y1="-38500" x2="66250.27" y2="-38450"/>
<line class="Lay0 L2" x1="65750.27" y1="-34900" x2="65750.27" y2="-34850"/>
<line class="Lay0 L2" x1="66250.27" y1="-34900" x2="66250.27" y2="-34850"/>
<path class="Lay0 L2" d="M 65800.27,-38500 A 459.572669983437,459.572669983437 0 0,0 65915.7,-38568.76"/>
<path class="Lay0 L2" d="M 66084.84,-38568.76 A 459.572669983437,459.572669983437 0 0,0 66200.27,-38500"/>
<line class="Lay0 L2" x1="66300" y1="-44287.18" x2="66300" y2="-21400"/>
<line class="Lay0 L2" x1="65900" y1="-38923.05" x2="65900" y2="-44287.18"/>
<line class="Lay0 L2" x1="60900" y1="-38082.6" x2="65800.27" y2="-38082.6"/>
<line class="Lay0 L2" x1="60900" y1="-37882.6" x2="65800.27" y2="-37882.6"/>
<line class="Lay0 L2" x1="60900" y1="-38487.18" x2="65750.27" y2="-38487.18"/>
<line class="Lay0 L2" x1="60900" y1="-35282.6" x2="65800.27" y2="-35282.6"/>
<line class="Lay0 L2" x1="60900" y1="-35082.6" x2="65800.27" y2="-35082.6"/>
<line class="Lay0 L2" x1="44999.73" y1="-34600" x2="44999.73" y2="-38500"/>
<line class="Lay0 L2" x1="45399.73" y1="-34600" x2="45399.73" y2="-38500"/>
<line class="Lay0 L2" x1="45449.73" y1="-38500" x2="44949.73" y2="-38500"/>
<line class="Lay0 L2" x1="45449.73" y1="-34900" x2="44949.73" y2="-34900"/>
<circle class="Lay0 L2" cx="45199.73" cy="-38750" r="200"/>
<line class="Lay0 L2" x1="45299.73" y1="-38576.79" x2="45299.73" y2="-38576.79"/>
<line class="Lay0 L2" x1="45449.73" y1="-34850" x2="44949.73" y2="-34850"/>
<line class="Lay0 L2" x1="45449.73" y1="-38450" x2="44949.73" y2="-38450"/>
<line class="Lay0 L2" x1="45449.73" y1="-38500" x2="45449.73" y2="-38450"/>
<line class="Lay0 L2" x1="44949.73" y1="-38500" x2="44949.73" y2="-38450"/>
<line class="Lay0 L2" x1="45449.73" y1="-34900" x2="45449.73" y2="-34850"/>
<line class="Lay0 L2" x1="44949.73" y1="-34900" x2="44949.73" y2="-34850"/>
<path class="Lay0 L2" d="M 45284.3,-38568.76 A 459.572669983437,459.572669983437 0 0,0 45399.73,-38500"/>
<path class="Lay0 L2" d="M 44999.73,-38500 A 459.572669983437,459.572669983437 0 0,0 45115.16,-38568.76"/>
<line class="Lay0 L2" x1="50300" y1="-38082.6" x2="45399.73" y2="-38082.6"/>
<line class="Lay0 L2" x1="50300" y1="-37882.6" x2="45399.73" y2="-37882.6"/>
<line class="Lay0 L2" x1="50300" y1="-38487.18" x2="45449.73" y2="-38487.18"/>
<line class="Lay0 L2" x1="50300" y1="-35282.6" x2="45399.73" y2="-35282.6"/>
<line class="Lay0 L2" x1="50300" y1="-35082.6" x2="45399.73" y2="-35082.6"/>
<line class="Lay0 L2" x1="44900" y1="-34600" x2="66300" y2="-34600"/>
<line class="Lay0 L2" x1="37824.26" y1="-28767.84" x2="37824.26" y2="-27899.98"/>
<line class="Lay0 L2" x1="37724.26" y1="-28842.84" x2="37724.26" y2="-28767.84"/>
<line class="Lay0 L2" x1="39124.27" y1="-28842.84" x2="39124.27" y2="-28767.84"/>
<line class="Lay0 L2" x1="37724.26" y1="-28842.84" x2="39124.27" y2="-28842.84"/>
<line class="Lay0 L2" x1="37724.26" y1="-28767.84" x2="39124.27" y2="-28767.84"/>
<line class="Lay0 L2" x1="39024.27" y1="-29710.7" x2="39024.27" y2="-28842.84"/>
<line class="Lay0 L2" x1="38924.27" y1="-29785.7" x2="38924.27" y2="-29710.7"/>
<line class="Lay0 L2" x1="40324.28" y1="-29785.7" x2="40324.28" y2="-29710.7"/>
<line class="Lay0 L2" x1="38924.27" y1="-29785.7" x2="40324.28" y2="-29785.7"/>
<line class="Lay0 L2" x1="38924.27" y1="-29710.7" x2="40324.28" y2="-29710.7"/>
<line class="Lay0 L2" x1="40224.27" y1="-30653.56" x2="40224.27" y2="-29785.7"/>
<line class="Lay0 L2" x1="40124.27" y1="-30728.56" x2="40124.27" y2="-30653.56"/>
<line class="Lay0 L2" x1="41524.28" y1="-30728.56" x2="41524.28" y2="-30653.56"/>
<line class="Lay0 L2" x1="40124.27" y1="-30728.56" x2="41524.28" y2="-30728.56"/>
<line class="Lay0 L2" x1="40124.27" y1="-30653.56" x2="41524.28" y2="-30653.56"/>
<line class="Lay0 L2" x1="41424.27" y1="-31596.42" x2="41424.27" y2="-30728.56"/>
<line class="Lay0 L2" x1="41324.27" y1="-31671.42" x2="41324.27" y2="-31596.42"/>
<line class="Lay0 L2" x1="42724.28" y1="-31671.42" x2="42724.28" y2="-31596.42"/>
<line class="Lay0 L2" x1="41324.27" y1="-31671.42" x2="42724.28" y2="-31671.42"/>
<line class="Lay0 L2" x1="41324.27" y1="-31596.42" x2="42724.28" y2="-31596.42"/>
<line class="Lay0 L2" x1="42624.28" y1="-32539.28" x2="42624.28" y2="-31671.42"/>
<line class="Lay0 L2" x1="42524.28" y1="-32614.28" x2="42524.28" y2="-32539.28"/>
<line class="Lay0 L2" x1="43924.29" y1="-32614.28" x2="43924.29" y2="-32539.28"/>
<line class="Lay0 L2" x1="42524.28" y1="-32614.28" x2="43924.29" y2="-32614.28"/>
<line class="Lay0 L2" x1="42524.28" y1="-32539.28" x2="43924.29" y2="-32539.28"/>
<line class="Lay0 L2" x1="43824.28" y1="-33482.14" x2="43824.28" y2="-32614.28"/>
<line class="Lay0 L2" x1="43724.28" y1="-33557.14" x2="43724.28" y2="-33482.14"/>
<line class="Lay0 L2" x1="37924.27" y1="-27899.98" x2="37924.27" y2="-27824.98"/>
<line class="Lay0 L2" x1="43624.28" y1="-35542.86" x2="43624.28" y2="-35467.86"/>
<line class="Lay0 L2" x1="42424.27" y1="-36485.72" x2="42424.27" y2="-36410.72"/>
<line class="Lay0 L2" x1="42524.28" y1="-37353.58" x2="42524.28" y2="-36485.72"/>
<line class="Lay0 L2" x1="42624.28" y1="-37428.58" x2="42624.28" y2="-37353.58"/>
<line class="Lay0 L2" x1="41224.27" y1="-37428.58" x2="41224.27" y2="-37353.58"/>
<line class="Lay0 L2" x1="42624.28" y1="-37428.58" x2="41224.27" y2="-37428.58"/>
<line class="Lay0 L2" x1="42624.28" y1="-37353.58" x2="41224.27" y2="-37353.58"/>
<line class="Lay0 L2" x1="41324.28" y1="-38296.44" x2="41324.28" y2="-37428.58"/>
<line class="Lay0 L2" x1="41424.28" y1="-38371.44" x2="41424.28" y2="-38296.44"/>
<line class="Lay0 L2" x1="40024.27" y1="-38371.44" x2="40024.27" y2="-38296.44"/>
<line class="Lay0 L2" x1="41424.28" y1="-38371.44" x2="40024.27" y2="-38371.44"/>
<line class="Lay0 L2" x1="41424.28" y1="-38296.44" x2="40024.27" y2="-38296.44"/>
<line class="Lay0 L2" x1="40124.27" y1="-39239.3" x2="40124.27" y2="-38371.44"/>
<line class="Lay0 L2" x1="40224.27" y1="-39314.3" x2="40224.27" y2="-39239.3"/>
<line class="Lay0 L2" x1="38824.26" y1="-39314.3" x2="38824.26" y2="-39239.3"/>
<line class="Lay0 L2" x1="40224.27" y1="-39314.3" x2="38824.26" y2="-39314.3"/>
<line class="Lay0 L2" x1="40224.27" y1="-39239.3" x2="38824.26" y2="-39239.3"/>
<line class="Lay0 L2" x1="38924.27" y1="-40182.16" x2="38924.27" y2="-39314.3"/>
<line class="Lay0 L2" x1="39024.27" y1="-40257.16" x2="39024.27" y2="-40182.16"/>
<line class="Lay0 L2" x1="36624.26" y1="-27057.16" x2="36624.26" y2="-27824.98"/>
<line class="Lay0 L2" x1="36174.26" y1="-30957.16" x2="36674.26" y2="-30957.16"/>
<line class="Lay0 L2" x1="36174.26" y1="-27357.16" x2="36674.26" y2="-27357.16"/>
<circle class="Lay0 L2" cx="36424.26" cy="-31207.16" r="200"/>
<line class="Lay0 L2" x1="36324.26" y1="-31033.95" x2="36324.26" y2="-31033.95"/>
<line class="Lay0 L2" x1="36174.26" y1="-27307.16" x2="36674.26" y2="-27307.16"/>
<line class="Lay0 L2" x1="36174.26" y1="-30907.16" x2="36674.26" y2="-30907.16"/>
<line class="Lay0 L2" x1="36174.26" y1="-30957.16" x2="36174.26" y2="-30907.16"/>
<line class="Lay0 L2" x1="36674.26" y1="-30957.16" x2="36674.26" y2="-30907.16"/>
<line class="Lay0 L2" x1="36174.26" y1="-27357.16" x2="36174.26" y2="-27307.16"/>
<line class="Lay0 L2" x1="36674.26" y1="-27357.16" x2="36674.26" y2="-27307.16"/>
<line class="Lay0 L2" x1="36224.26" y1="-27268.67" x2="36224.26" y2="-27057.16"/>
<line class="Lay0 L2" x1="36224.26" y1="-27271.37" x2="36224.26" y2="-27057.16"/>
<line class="Lay0 L2" x1="36624.26" y1="-27357.16" x2="36624.26" y2="-30907.16"/>
<line class="Lay0 L2" x1="36224.26" y1="-27057.16" x2="36224.26" y2="-27307.16"/>
<line class="Lay0 L2" x1="36624.26" y1="-27057.16" x2="36624.26" y2="-27307.16"/>
<line class="Lay0 L2" x1="36224.26" y1="-27392.92" x2="36224.26" y2="-27790.62"/>
<path class="Lay0 L2" d="M 36224.26,-30957.16 A 459.572669983437,459.572669983437 0 0,0 36339.69,-31025.92"/>
<path class="Lay0 L2" d="M 36508.83,-31025.92 A 459.572669983437,459.572669983437 0 0,0 36624.26,-30957.16"/>
<line class="Lay0 L2" x1="36224.26" y1="-30907.16" x2="36224.26" y2="-27357.16"/>
<line class="Lay0 L2" x1="37924.27" y1="-27899.98" x2="36624.26" y2="-27899.98"/>
<line class="Lay0 L2" x1="37924.27" y1="-27824.98" x2="36624.26" y2="-27824.98"/>
<line class="Lay0 L2" x1="40824.27" y1="-33864.74" x2="40824.27" y2="-31776.22"/>
<line class="Lay0 L2" x1="40724.27" y1="-33864.74" x2="40724.27" y2="-31776.22"/>
<line class="Lay0 L2" x1="37267.17" y1="-31109.16" x2="37267.17" y2="-29020.64"/>
<line class="Lay0 L2" x1="37167.17" y1="-31030.59" x2="37167.17" y2="-28942.07"/>
<line class="Lay0 L2" x1="37860.02" y1="-31574.97" x2="37860.02" y2="-29486.45"/>
<line class="Lay0 L2" x1="37760.02" y1="-31496.4" x2="37760.02" y2="-29407.88"/>
<line class="Lay0 L2" x1="38352.87" y1="-31962.21" x2="38352.87" y2="-29873.69"/>
<line class="Lay0 L2" x1="38452.87" y1="-32040.78" x2="38452.87" y2="-29952.26"/>
<line class="Lay0 L2" x1="38945.72" y1="-32428.02" x2="38945.72" y2="-30339.5"/>
<line class="Lay0 L2" x1="39045.72" y1="-32506.59" x2="39045.72" y2="-30418.07"/>
<line class="Lay0 L2" x1="39538.57" y1="-32893.83" x2="39538.57" y2="-30805.31"/>
<line class="Lay0 L2" x1="39638.57" y1="-32972.4" x2="39638.57" y2="-30883.88"/>
<line class="Lay0 L2" x1="40131.42" y1="-33359.64" x2="40131.42" y2="-31271.12"/>
<line class="Lay0 L2" x1="40231.42" y1="-33438.21" x2="40231.42" y2="-31349.69"/>
<line class="Lay0 L2" x1="41317.12" y1="-34291.26" x2="41317.12" y2="-32202.74"/>
<line class="Lay0 L2" x1="41417.12" y1="-34369.83" x2="41417.12" y2="-32281.31"/>
<line class="Lay0 L2" x1="41909.97" y1="-34757.07" x2="41909.97" y2="-32668.55"/>
<line class="Lay0 L2" x1="42009.97" y1="-34835.64" x2="42009.97" y2="-32747.12"/>
<line class="Lay0 L2" x1="42502.82" y1="-35222.88" x2="42502.82" y2="-33134.36"/>
<line class="Lay0 L2" x1="42602.82" y1="-35301.45" x2="42602.82" y2="-33212.93"/>
<line class="Lay0 L2" x1="43095.67" y1="-35688.69" x2="43095.67" y2="-33600.17"/>
<line class="Lay0 L2" x1="43195.67" y1="-35767.26" x2="43195.67" y2="-33678.74"/>
<line class="Lay0 L2" x1="43688.52" y1="-36154.5" x2="43688.52" y2="-34065.98"/>
<line class="Lay0 L2" x1="43788.52" y1="-36233.07" x2="43788.52" y2="-34144.55"/>
<line class="Lay0 L2" x1="44281.37" y1="-36620.31" x2="44281.37" y2="-34531.79"/>
<line class="Lay0 L2" x1="44381.37" y1="-36698.88" x2="44381.37" y2="-34610.36"/>
<line class="Lay0 L2" x1="51500" y1="-36907.18" x2="51950" y2="-36907.18"/>
<line class="Lay0 L2" x1="52550" y1="-36907.18" x2="52050" y2="-36907.18"/>
<line class="Lay0 L2" x1="53150" y1="-36907.18" x2="52650" y2="-36907.18"/>
<line class="Lay0 L2" x1="53750" y1="-36907.18" x2="53250" y2="-36907.18"/>
<line class="Lay0 L2" x1="54350" y1="-36907.18" x2="53850" y2="-36907.18"/>
<line class="Lay0 L2" x1="54450" y1="-36907.18" x2="54800" y2="-36907.18"/>
<line class="Lay0 L2" x1="54800" y1="-37882.6" x2="54800" y2="-35387.18"/>
<line class="Lay0 L2" x1="53700" y1="-37882.6" x2="53700" y2="-35387.18"/>
<line class="Lay0 L2" x1="51500" y1="-37882.6" x2="51500" y2="-35387.18"/>
<line class="Lay0 L2" x1="51500" y1="-42987.18" x2="51500" y2="-38082.6"/>
<line class="Lay0 L2" x1="52600" y1="-38082.6" x2="52600" y2="-42987.18"/>
<line class="Lay0 L2" x1="53700" y1="-42987.18" x2="53700" y2="-38082.6"/>
<line class="Lay0 L2" x1="54800" y1="-42987.18" x2="54800" y2="-38082.6"/>
<line class="Lay0 L2" x1="54450" y1="-35387.18" x2="54800" y2="-35387.18"/>
<line class="Lay0 L2" x1="54350" y1="-35387.18" x2="53850" y2="-35387.18"/>
<line class="Lay0 L2" x1="53750" y1="-35387.18" x2="53250" y2="-35387.18"/>
<line class="Lay0 L2" x1="53150" y1="-35387.18" x2="52650" y2="-35387.18"/>
<line class="Lay0 L2" x1="52550" y1="-35387.18" x2="52050" y2="-35387.18"/>
<line class="Lay0 L2" x1="51500" y1="-35387.18" x2="51950" y2="-35387.18"/>
<line class="Lay0 L2" x1="55600" y1="-35082.6" x2="55600" y2="-34587.18"/>
<line class="Lay0 L2" x1="55600" y1="-43687.18" x2="55600" y2="-38082.6"/>
<line class="Lay0 L2" x1="56400" y1="-42987.18" x2="56400" y2="-38082.6"/>
<line class="Lay0 L2" x1="57500" y1="-42987.18" x2="57500" y2="-38082.6"/>
<line class="Lay0 L2" x1="58600" y1="-42987.18" x2="58600" y2="-38082.6"/>
<line class="Lay0 L2" x1="59700" y1="-42987.18" x2="59700" y2="-38082.6"/>
<line class="Lay0 L2" x1="59700" y1="-37882.6" x2="59700" y2="-35387.18"/>
<line class="Lay0 L2" x1="57500" y1="-37882.6" x2="57500" y2="-35387.18"/>
<line class="Lay0 L2" x1="56400" y1="-37882.6" x2="56400" y2="-35387.18"/>
<line class="Lay0 L2" x1="56750" y1="-35387.18" x2="56400" y2="-35387.18"/>
<line class="Lay0 L2" x1="56750" y1="-36907.18" x2="56400" y2="-36907.18"/>
<line class="Lay0 L2" x1="56850" y1="-36907.18" x2="57350" y2="-36907.18"/>
<line class="Lay0 L2" x1="56850" y1="-35387.18" x2="57350" y2="-35387.18"/>
<line class="Lay0 L2" x1="57450" y1="-36907.18" x2="57950" y2="-36907.18"/>
<line class="Lay0 L2" x1="57450" y1="-35387.18" x2="57950" y2="-35387.18"/>
<line class="Lay0 L2" x1="58050" y1="-36907.18" x2="58550" y2="-36907.18"/>
<line class="Lay0 L2" x1="58050" y1="-35387.18" x2="58550" y2="-35387.18"/>
<line class="Lay0 L2" x1="58650" y1="-36907.18" x2="59150" y2="-36907.18"/>
<line class="Lay0 L2" x1="58650" y1="-35387.18" x2="59150" y2="-35387.18"/>
<line class="Lay0 L2" x1="59700" y1="-36907.18" x2="59250" y2="-36907.18"/>
<line class="Lay0 L2" x1="59700" y1="-35387.18" x2="59250" y2="-35387.18"/>
<line class="Lay0 L2" x1="43724.28" y1="-33557.14" x2="44900" y2="-33557.14"/>
<line class="Lay0 L2" x1="43724.28" y1="-33482.14" x2="44900" y2="-33482.14"/>
<line class="Lay0 L2" x1="44900" y1="-32446.12" x2="38041.31" y2="-27057.16"/>
<line class="Lay0 L2" x1="66260.69" y1="-33460.07" x2="44900" y2="-33460.07"/>
<line class="Lay0 L2" x1="55840" y1="-50127.18" x2="55840" y2="-52287.18"/>
<line class="Lay0 L2" x1="60900" y1="-44287.18" x2="68700" y2="-44287.18"/>
<path class="Lay0 L2" d="M 56400,-44287.18 A 800,800 0 0,0 54800,-44287.18"/>
<line class="Lay0 L2" x1="50400" y1="-44287.18" x2="60800" y2="-44287.18"/>
<path class="Lay0 L2" d="M 56300,-44287.18 A 700,700 0 0,0 54900,-44287.18"/>
<line class="Lay0 L2" x1="55400" y1="-44287.18" x2="51999.3" y2="-46250.58"/>
<line class="Lay0 L2" x1="55426.8" y1="-44387.18" x2="53463.4" y2="-47787.88"/>
<line class="Lay0 L2" x1="55550" y1="-44373.78" x2="53550" y2="-47837.88"/>
<line class="Lay0 L2" x1="55426.8" y1="-44387.18" x2="52049.3" y2="-46337.18"/>
<path class="Lay0 L2" d="M 60500,-44287.18 A 4900,4900 0 0,0 50700,-44287.18"/>
<path class="Lay0 L2" d="M 57500,-44287.18 A 1900,1900 0 0,0 53700,-44287.18"/>
<path class="Lay0 L2" d="M 58600,-44287.18 A 3000,3000 0 0,0 52600,-44287.18"/>
<path class="Lay0 L2" d="M 59700,-44287.18 A 4100,4100 0 0,0 51500,-44287.18"/>
<path class="Lay0 L2" d="M 60200,-44287.18 A 4600,4600 0 0,0 51000,-44287.18"/>
<path class="Lay0 L2" d="M 60800,-44287.18 A 5200,5200 0 0,0 50400,-44287.18"/>
<path class="Lay0 L2" d="M 57400,-44287.18 A 1800,1800 0 0,0 53800,-44287.18"/>
<path class="Lay0 L2" d="M 58500,-44287.18 A 2900,2900 0 0,0 52700,-44287.18"/>
<line class="Lay0 L2" x1="55800" y1="-44287.18" x2="59200.71" y2="-46250.58"/>
<line class="Lay0 L2" x1="55773.2" y1="-44387.18" x2="57736.6" y2="-47787.88"/>
<line class="Lay0 L2" x1="55650" y1="-44373.78" x2="57650" y2="-47837.88"/>
<line class="Lay0 L2" x1="55773.2" y1="-44387.18" x2="59150.71" y2="-46337.18"/>
<line class="Lay0 L2" x1="55650" y1="-44373.78" x2="55650" y2="-48387.18"/>
<line class="Lay0 L2" x1="55550" y1="-44373.78" x2="55550" y2="-48387.18"/>
<line class="Lay0 L2" x1="36624.26" y1="-28515.5" x2="44999.73" y2="-35096.21"/>
<line class="Lay0 L2" x1="36624.26" y1="-28261.16" x2="44999.73" y2="-34841.87"/>
<line class="Lay0 L2" x1="44999.73" y1="-37439.08" x2="36624.26" y2="-30858.36"/>
<line class="Lay0 L2" x1="44900" y1="-34763.51" x2="44900" y2="-26114.3"/>
<line class="Lay0 L2" x1="42424.27" y1="-36410.72" x2="43690.91" y2="-36410.72"/>
<line class="Lay0 L2" x1="42424.27" y1="-36485.72" x2="43786.36" y2="-36485.72"/>
<line class="Lay0 L2" x1="44999.73" y1="-35542.86" x2="44381.37" y2="-35542.86"/>
<line class="Lay0 L2" x1="44999.73" y1="-35467.86" x2="44381.37" y2="-35467.86"/>
<line class="Lay0 L2" x1="44281.37" y1="-35542.86" x2="43788.52" y2="-35542.86"/>
<line class="Lay0 L2" x1="44281.37" y1="-35467.86" x2="43788.52" y2="-35467.86"/>
<line class="Lay0 L2" x1="43624.28" y1="-35542.86" x2="43688.52" y2="-35542.86"/>
<line class="Lay0 L2" x1="43624.28" y1="-35467.86" x2="43688.52" y2="-35467.86"/>
<line class="Lay0 L2" x1="44900" y1="-35467.86" x2="44900" y2="-35017.85"/>
<line class="Lay0 L2" x1="37824.26" y1="-39165.23" x2="42510.45" y2="-35483.22"/>
<line class="Lay0 L2" x1="43095.67" y1="-35023.42" x2="42672.31" y2="-35356.05"/>
<line class="Lay0 L2" x1="43688.52" y1="-34557.61" x2="43195.67" y2="-34944.85"/>
<line class="Lay0 L2" x1="44001.37" y1="-34311.79" x2="43788.52" y2="-34479.03"/>
<line class="Lay0 L2" x1="44163.22" y1="-34184.62" x2="44900" y2="-33605.72"/>
<line class="Lay0 L2" x1="40799.72" y1="-41407.58" x2="40799.72" y2="-39319.06"/>
<line class="Lay0 L2" x1="40899.72" y1="-41407.58" x2="40899.72" y2="-39319.06"/>
<line class="Lay0 L2" x1="43763.97" y1="-39117.81" x2="43763.97" y2="-37029.29"/>
<line class="Lay0 L2" x1="43863.97" y1="-39039.24" x2="43863.97" y2="-36950.72"/>
<line class="Lay0 L2" x1="43271.12" y1="-39505.05" x2="43271.12" y2="-37416.53"/>
<line class="Lay0 L2" x1="43171.12" y1="-39583.62" x2="43171.12" y2="-37495.1"/>
<line class="Lay0 L2" x1="42678.27" y1="-39970.86" x2="42678.27" y2="-37882.34"/>
<line class="Lay0 L2" x1="42578.27" y1="-40049.43" x2="42578.27" y2="-37960.91"/>
<line class="Lay0 L2" x1="42085.42" y1="-40436.67" x2="42085.42" y2="-38348.15"/>
<line class="Lay0 L2" x1="41985.42" y1="-40515.24" x2="41985.42" y2="-38426.72"/>
<line class="Lay0 L2" x1="41492.57" y1="-40902.48" x2="41492.57" y2="-38813.96"/>
<line class="Lay0 L2" x1="41392.57" y1="-40981.05" x2="41392.57" y2="-38892.53"/>
<line class="Lay0 L2" x1="40306.87" y1="-41834.1" x2="40306.87" y2="-39745.58"/>
<line class="Lay0 L2" x1="40206.87" y1="-41912.67" x2="40206.87" y2="-39824.15"/>
<line class="Lay0 L2" x1="39714.02" y1="-42299.91" x2="39714.02" y2="-40211.39"/>
<line class="Lay0 L2" x1="39614.02" y1="-42378.48" x2="39614.02" y2="-40289.96"/>
<line class="Lay0 L2" x1="39121.17" y1="-42765.72" x2="39121.17" y2="-40677.2"/>
<line class="Lay0 L2" x1="39021.17" y1="-42844.29" x2="39021.17" y2="-40755.77"/>
<line class="Lay0 L2" x1="44999.73" y1="-37184.74" x2="36624.26" y2="-30604.02"/>
<line class="Lay0 L2" x1="44356.82" y1="-36933.94" x2="44356.82" y2="-38652"/>
<line class="Lay0 L2" x1="44456.82" y1="-37012.51" x2="44456.82" y2="-38573.43"/>
<line class="Lay0 L2" x1="44456.82" y1="-36484.91" x2="44456.82" y2="-36758.17"/>
<line class="Lay0 L2" x1="44999.73" y1="-35804" x2="44381.37" y2="-36289.86"/>
<line class="Lay0 L2" x1="44121.07" y1="-36494.36" x2="44281.37" y2="-36368.42"/>
<line class="Lay0 L2" x1="44999.73" y1="-36058.35" x2="44381.37" y2="-36544.2"/>
<line class="Lay0 L2" x1="44900" y1="-37360.72" x2="44900" y2="-38225.22"/>
<line class="Lay0 L2" x1="44900" y1="-36136.71" x2="44900" y2="-37106.38"/>
<line class="Lay0 L2" x1="44900" y1="-35542.86" x2="44900" y2="-35882.36"/>
<line class="Lay0 L2" x1="38424.26" y1="-40257.16" x2="38424.26" y2="-44157.16"/>
<line class="Lay0 L2" x1="38024.26" y1="-40257.16" x2="38024.26" y2="-44157.16"/>
<line class="Lay0 L2" x1="37974.26" y1="-44157.16" x2="38474.26" y2="-44157.16"/>
<line class="Lay0 L2" x1="37974.26" y1="-40557.16" x2="38474.26" y2="-40557.16"/>
<circle class="Lay0 L2" cx="38224.26" cy="-44407.16" r="200"/>
<line class="Lay0 L2" x1="38124.26" y1="-44233.95" x2="38124.26" y2="-44233.95"/>
<line class="Lay0 L2" x1="37974.26" y1="-40507.16" x2="38474.26" y2="-40507.16"/>
<line class="Lay0 L2" x1="37974.26" y1="-44107.16" x2="38474.26" y2="-44107.16"/>
<line class="Lay0 L2" x1="37974.26" y1="-40557.16" x2="37974.26" y2="-40507.16"/>
<line class="Lay0 L2" x1="38474.26" y1="-40557.16" x2="38474.26" y2="-40507.16"/>
<path class="Lay0 L2" d="M 38024.26,-44157.16 A 459.572669983437,459.572669983437 0 0,0 38139.69,-44225.92"/>
<path class="Lay0 L2" d="M 38308.83,-44225.92 A 459.572669983437,459.572669983437 0 0,0 38424.26,-44157.16"/>
<line class="Lay0 L2" x1="38424.26" y1="-43567.64" x2="44999.73" y2="-38401.2"/>
<line class="Lay0 L2" x1="38424.26" y1="-43313.3" x2="44999.73" y2="-38146.86"/>
<line class="Lay0 L2" x1="38424.26" y1="-41224.78" x2="44121.08" y2="-36748.71"/>
<line class="Lay0 L2" x1="38424.26" y1="-40970.42" x2="43959.22" y2="-36621.54"/>
<line class="Lay0 L2" x1="35699.73" y1="-43587.18" x2="35699.73" y2="-40987.18"/>
<line class="Lay0 L2" x1="35599.73" y1="-43587.18" x2="35599.73" y2="-40987.18"/>
<line class="Lay0 L2" x1="34999.73" y1="-43587.18" x2="34999.73" y2="-40987.18"/>
<line class="Lay0 L2" x1="35099.73" y1="-43587.18" x2="35099.73" y2="-40987.18"/>
<line class="Lay0 L2" x1="34399.73" y1="-43587.18" x2="34399.73" y2="-40987.18"/>
<line class="Lay0 L2" x1="34499.73" y1="-43587.18" x2="34499.73" y2="-40987.18"/>
<line class="Lay0 L2" x1="33799.73" y1="-43587.18" x2="33799.73" y2="-40987.18"/>
<line class="Lay0 L2" x1="33899.73" y1="-43587.18" x2="33899.73" y2="-40987.18"/>
<line class="Lay0 L2" x1="33199.73" y1="-43587.18" x2="33199.73" y2="-40987.18"/>
<line class="Lay0 L2" x1="33299.73" y1="-43587.18" x2="33299.73" y2="-40987.18"/>
<line class="Lay0 L2" x1="36299.73" y1="-43587.18" x2="36299.73" y2="-40987.18"/>
<line class="Lay0 L2" x1="36199.73" y1="-43587.18" x2="36199.73" y2="-40987.18"/>
<line class="Lay0 L2" x1="36899.73" y1="-43587.18" x2="36899.73" y2="-40987.18"/>
<line class="Lay0 L2" x1="36799.73" y1="-43587.18" x2="36799.73" y2="-40987.18"/>
<line class="Lay0 L2" x1="37499.73" y1="-43587.18" x2="37499.73" y2="-40987.18"/>
<line class="Lay0 L2" x1="37399.73" y1="-43587.18" x2="37399.73" y2="-40987.18"/>
<line class="Lay0 L2" x1="33099.73" y1="-43787.18" x2="38000" y2="-43787.18"/>
<line class="Lay0 L2" x1="33099.73" y1="-43587.18" x2="38000" y2="-43587.18"/>
<line class="Lay0 L2" x1="33099.73" y1="-40987.18" x2="38000" y2="-40987.18"/>
<line class="Lay0 L2" x1="33099.73" y1="-40787.18" x2="38000" y2="-40787.18"/>
<line class="Lay0 L2" x1="33199.73" y1="-40257.16" x2="39024.27" y2="-40257.16"/>
<line class="Lay0 L2" x1="44299.97" y1="-27057.16" x2="33199.73" y2="-27057.16"/>
<line class="Lay0 L2" x1="67600" y1="-56187.18" x2="67600" y2="-58050.17"/>
<line class="Lay0 L2" x1="67614.89" y1="-45532.16" x2="67614.89" y2="-47745.84"/>
<line class="Lay0 L2" x1="66500" y1="-47745.84" x2="66500" y2="-56000"/>
<line class="Lay0 L2" x1="66300" y1="-56200" x2="66300" y2="-47745.84"/>
<line class="Lay0 L2" x1="68500" y1="-47400" x2="67614.89" y2="-47400"/>
<line class="Lay0 L2" x1="68500" y1="-46800" x2="67614.89" y2="-46800"/>
<line class="Lay0 L2" x1="68500" y1="-46200" x2="67614.89" y2="-46200"/>
<line class="Lay0 L2" x1="68500" y1="-45600" x2="67614.89" y2="-45600"/>
<line class="Lay0 L2" x1="66300" y1="-47745.84" x2="67614.89" y2="-47745.84"/>
<line class="Lay0 L2" x1="68500" y1="-45021.15" x2="68500" y2="-56000"/>
<line class="Lay0 L2" x1="67614.89" y1="-45532.16" x2="68700" y2="-44905.68"/>
<line class="Lay0 L2" x1="45300" y1="-51630.25" x2="45300" y2="-38923.05"/>
<line class="Lay0 L2" x1="44900" y1="-51630.25" x2="44900" y2="-38479.56"/>
<line class="Lay0 L2" x1="28421.45" y1="-51630.25" x2="47677.9" y2="-51630.25"/>
<line class="Lay0 L2" x1="47677.9" y1="-52230.25" x2="47677.9" y2="-51630.25"/>
<line class="Lay0 L2" x1="47051.48" y1="-44887.18" x2="45300" y2="-44887.18"/>
<line class="Lay0 L2" x1="50300" y1="-44287.18" x2="45300" y2="-44287.18"/>
<line class="Lay0 L2" x1="46441.99" y1="-58050.17" x2="67600" y2="-58050.17"/>
<line class="Lay0 L2" x1="47677.9" y1="-52230.25" x2="41607.7" y2="-55734.88"/>
<line class="Lay0 L2" x1="39024.27" y1="-40182.16" x2="38924.27" y2="-40182.16"/>
<text class="Lay0 T1" x="43749.28" y="-20478.7" transform="rotate(0 43749.28 -20478.7)"
>ADAPED FROM "VENTU PARK" PLANS BY STEVE PATTERSON</text>
<path class="Lay1 L2" d="M 56000,-51587.18 A 200,200 0 0,0 56400,-51587.18"/>
<path class="Lay1 L2" d="M 56200,-51187.18 A 200,200 0 0,0 56600,-51187.18"/>
<path class="Lay1 L2" d="M 56000,-50787.18 A 200,200 0 0,0 56400,-50787.18"/>
<line class="Lay1 L2" x1="56200" y1="-51187.18" x2="56200" y2="-51387.18"/>
<line class="Lay1 L2" x1="56400" y1="-50787.18" x2="56400" y2="-50987.18"/>
<line class="Lay1 L2" x1="56000" y1="-50787.18" x2="56000" y2="-50987.18"/>
<line class="Lay1 L2" x1="56000" y1="-51587.18" x2="56000" y2="-51787.18"/>
<line class="Lay1 L2" x1="56400" y1="-51587.18" x2="56400" y2="-51787.18"/>
<line class="Lay1 L2" x1="56600" y1="-51187.18" x2="56600" y2="-51387.18"/>
<path class="Lay1 L2" d="M 56400,-50787.18 A 200,200 0 0,0 56800,-50787.18"/>
<path class="Lay1 L2" d="M 56200,-50387.18 A 200,200 0 0,0 56600,-50387.18"/>
<line class="Lay1 L2" x1="56600" y1="-50387.18" x2="56600" y2="-50587.18"/>
<line class="Lay1 L2" x1="56200" y1="-50387.18" x2="56200" y2="-50587.18"/>
<line class="Lay1 L2" x1="56800" y1="-50787.18" x2="56800" y2="-50987.18"/>
<path class="Lay1 L2" d="M 56600,-50387.18 A 200,200 0 0,0 57000,-50387.18"/>
<path class="Lay1 L2" d="M 56400,-49987.18 A 200,200 0 0,0 56800,-49987.18"/>
<line class="Lay1 L2" x1="56800" y1="-49987.18" x2="56800" y2="-50187.18"/>
<line class="Lay1 L2" x1="56400" y1="-49987.18" x2="56400" y2="-50187.18"/>
<line class="Lay1 L2" x1="57000" y1="-50387.18" x2="57000" y2="-50587.18"/>
<path class="Lay1 L2" d="M 56800,-49987.18 A 200,200 0 0,0 57200,-49987.18"/>
<line class="Lay1 L2" x1="57000" y1="-49587.18" x2="57000" y2="-49787.18"/>
<line class="Lay1 L2" x1="56600" y1="-49587.18" x2="56600" y2="-49787.18"/>
<line class="Lay1 L2" x1="57200" y1="-49987.18" x2="57200" y2="-50187.18"/>
<path class="Lay1 L2" d="M 56600,-51187.18 A 200,200 0 0,0 57000,-51187.18"/>
<path class="Lay1 L2" d="M 56800,-50787.18 A 200,200 0 0,0 57200,-50787.18"/>
<line class="Lay1 L2" x1="57200" y1="-50787.18" x2="57200" y2="-50987.18"/>
<path class="Lay1 L2" d="M 57000,-50387.18 A 200,200 0 0,0 57400,-50387.18"/>
<line class="Lay1 L2" x1="57400" y1="-50387.18" x2="57400" y2="-50587.18"/>
<line class="Lay1 L2" x1="55600" y1="-52387.18" x2="55600" y2="-52587.18"/>
<path class="Lay1 L2" d="M 56400,-51587.18 A 200,200 0 0,0 56741.42,-51445.76"/>
<path class="Lay1 L2" d="M 55840,-51867.18 A 200,200 0 0,0 56200,-51987.18"/>
<path class="Lay1 L2" d="M 55840,-51391.22 A 200,200 0 0,0 56000,-51587.18"/>
<path class="Lay1 L2" d="M 55840,-51067.18 A 200,200 0 0,0 56200,-51187.18"/>
<path class="Lay1 L2" d="M 57000,-49587.18 A 200,200 0 0,0 57400,-49587.18"/>
<line class="Lay1 L2" x1="57400" y1="-49587.18" x2="57400" y2="-49787.18"/>
<path class="Lay1 L2" d="M 57200,-49987.18 A 200,200 0 0,0 57600,-49987.18"/>
<line class="Lay1 L2" x1="57600" y1="-49987.18" x2="57600" y2="-50187.18"/>
<path class="Lay1 L2" d="M 57400,-50387.18 A 200,200 0 0,0 57800,-50387.18"/>
<line class="Lay1 L2" x1="57600" y1="-49187.18" x2="57600" y2="-49387.18"/>
<path class="Lay1 L2" d="M 57400,-49587.18 A 200,200 0 0,0 57800,-49587.18"/>
<line class="Lay1 L2" x1="57800" y1="-49587.18" x2="57800" y2="-49787.18"/>
<path class="Lay1 L2" d="M 57600,-49987.18 A 200,200 0 0,0 58000,-49987.18"/>
<line class="Lay1 L2" x1="58000" y1="-49987.18" x2="58000" y2="-50187.18"/>
<path class="Lay1 L2" d="M 56000,-49987.18 A 200,200 0 0,0 56400,-49987.18"/>
<line class="Lay1 L2" x1="56000" y1="-49987.18" x2="56000" y2="-50187.18"/>
<line class="Lay1 L2" x1="56200" y1="-49587.18" x2="56200" y2="-49787.18"/>
<path class="Lay1 L2" d="M 55840,-50591.22 A 200,200 0 0,0 56000,-50787.18"/>
<path class="Lay1 L2" d="M 55840,-50267.18 A 200,200 0 0,0 56200,-50387.18"/>
<path class="Lay1 L2" d="M 57200,-50787.18 A 200,200 0 0,0 57541.42,-50645.76"/>
<path class="Lay1 L2" d="M 55600,-49987.18 A 200,200 0 0,0 56000,-49987.18"/>
<line class="Lay1 L2" x1="55800" y1="-49587.18" x2="55800" y2="-49787.18"/>
<line class="Lay1 L2" x1="55600" y1="-50127.18" x2="55600" y2="-49987.18"/>
<path class="Lay1 L2" d="M 55600,-49587.18 A 200,200 0 0,0 55800,-49787.18"/>
<path class="Lay1 L2" d="M 55800,-49587.18 A 200,200 0 0,0 55800.04,-49583.4"/>
<path class="Lay1 L2" d="M 56197.13,-49553.43 A 200,200 0 0,0 56200,-49587.18"/>
<path class="Lay1 L2" d="M 56200,-49587.18 A 200,200 0 0,0 56202.98,-49552.77"/>
<path class="Lay1 L2" d="M 56578.08,-49496.15 A 200,200 0 0,0 56600,-49587.18"/>
<path class="Lay1 L2" d="M 56600,-49587.18 A 200,200 0 0,0 56627.07,-49486.71"/>
<path class="Lay1 L2" d="M 56912.79,-49422.02 A 200,200 0 0,0 57000,-49587.18"/>
<line class="Lay1 L2" x1="57200" y1="-49339.9" x2="57200" y2="-49387.18"/>
<line class="Lay1 L2" x1="58000" y1="-49187.18" x2="58000" y2="-49387.18"/>
<path class="Lay1 L2" d="M 57800,-49587.18 A 200,200 0 0,0 58200,-49587.18"/>
<line class="Lay1 L2" x1="58200" y1="-49587.18" x2="58200" y2="-49787.18"/>
<path class="Lay1 L2" d="M 58000,-49187.18 A 200,200 0 0,0 58400,-49187.18"/>
<line class="Lay1 L2" x1="58400" y1="-49187.18" x2="58400" y2="-49387.18"/>
<path class="Lay1 L2" d="M 58200,-49587.18 A 200,200 0 0,0 58600,-49587.18"/>
<path class="Lay1 L2" d="M 58400,-49187.18 A 200,200 0 0,0 58800,-49187.18"/>
<line class="Lay1 L2" x1="58800" y1="-49187.18" x2="58800" y2="-49387.18"/>
<line class="Lay1 L2" x1="58600" y1="-48787.18" x2="58600" y2="-48987.18"/>
<line class="Lay1 L2" x1="59000" y1="-48787.18" x2="59000" y2="-48987.18"/>
<path class="Lay1 L2" d="M 58600,-48787.18 A 200,200 0 0,0 59000,-48787.18"/>
<line class="Lay1 L2" x1="59000" y1="-48787.18" x2="59000" y2="-48987.18"/>
<line class="Lay1 L2" x1="59200" y1="-48387.18" x2="59200" y2="-48587.18"/>
<path class="Lay1 L2" d="M 59200,-48387.18 A 200,200 0 0,0 59600,-48387.18"/>
<line class="Lay1 L2" x1="59600" y1="-48387.18" x2="59600" y2="-48587.18"/>
<path class="Lay1 L2" d="M 59000,-48787.18 A 200,200 0 0,0 59400,-48787.18"/>
<path class="Lay1 L2" d="M 59133.03,-48237.84 A 200,200 0 0,0 59200,-48387.18"/>
<path class="Lay1 L2" d="M 58567.79,-48678.33 A 200,200 0 0,0 58600,-48787.18"/>
<line class="Lay1 L2" x1="58200" y1="-48905.62" x2="58200" y2="-48987.18"/>
<line class="Lay1 L2" x1="58800" y1="-48512.11" x2="58800" y2="-48587.18"/>
<path class="Lay1 L2" d="M 58800,-49187.18 A 200,200 0 0,0 59141.42,-49045.76"/>
<path class="Lay1 L2" d="M 58000,-49987.18 A 200,200 0 0,0 58341.42,-49845.76"/>
<path class="Lay1 L2" d="M 57938.83,-49043.22 A 200,200 0 0,0 58000,-49187.18"/>
<line class="Lay1 L2" x1="59400" y1="-47987.18" x2="59400" y2="-48187.18"/>
<line class="Lay1 L2" x1="59800" y1="-47987.18" x2="59800" y2="-48187.18"/>
<line class="Lay1 L2" x1="60000" y1="-47587.18" x2="60000" y2="-47787.18"/>
<line class="Lay1 L2" x1="60200" y1="-47187.18" x2="60200" y2="-47387.18"/>
<path class="Lay1 L2" d="M 60000,-47587.18 A 200,200 0 0,0 60400,-47587.18"/>
<line class="Lay1 L2" x1="60400" y1="-46787.18" x2="60400" y2="-46987.18"/>
<path class="Lay1 L2" d="M 60200,-47187.18 A 200,200 0 0,0 60600,-47187.18"/>
<line class="Lay1 L2" x1="60600" y1="-47187.18" x2="60600" y2="-47387.18"/>
<line class="Lay1 L2" x1="60600" y1="-46387.18" x2="60600" y2="-46587.18"/>
<path class="Lay1 L2" d="M 60400,-46787.18 A 200,200 0 0,0 60800,-46787.18"/>
<line class="Lay1 L2" x1="60800" y1="-46787.18" x2="60800" y2="-46987.18"/>
<line class="Lay1 L2" x1="61600" y1="-45987.18" x2="61600" y2="-46187.18"/>
<line class="Lay1 L2" x1="61600" y1="-45987.18" x2="61600" y2="-46187.18"/>
<line class="Lay1 L2" x1="61800" y1="-45587.18" x2="61800" y2="-45787.18"/>
<path class="Lay1 L2" d="M 61800,-45587.18 A 200,200 0 0,0 62200,-45587.18"/>
<line class="Lay1 L2" x1="62200" y1="-45587.18" x2="62200" y2="-45787.18"/>
<path class="Lay1 L2" d="M 61600,-45987.18 A 200,200 0 0,0 62000,-45987.18"/>
<path class="Lay1 L2" d="M 60538.83,-46243.22 A 200,200 0 0,0 60600,-46387.18"/>
<line class="Lay1 L2" x1="61600" y1="-45187.18" x2="61600" y2="-45387.18"/>
<path class="Lay1 L2" d="M 61600,-45187.18 A 200,200 0 0,0 62000,-45187.18"/>
<path class="Lay1 L2" d="M 61400,-44787.18 A 200,200 0 0,0 61800,-44787.18"/>
<line class="Lay1 L2" x1="61800" y1="-44787.18" x2="61800" y2="-44987.18"/>
<line class="Lay1 L2" x1="61400" y1="-44787.18" x2="61400" y2="-44987.18"/>
<line class="Lay1 L2" x1="62000" y1="-45187.18" x2="62000" y2="-45387.18"/>
<path class="Lay1 L2" d="M 61800,-44787.18 A 200,200 0 0,0 62200,-44787.18"/>
<line class="Lay1 L2" x1="62000" y1="-44387.18" x2="62000" y2="-44587.18"/>
<line class="Lay1 L2" x1="61600" y1="-44387.18" x2="61600" y2="-44587.18"/>
<line class="Lay1 L2" x1="62200" y1="-44787.18" x2="62200" y2="-44987.18"/>
<line class="Lay1 L2" x1="62400" y1="-44387.18" x2="62400" y2="-44587.18"/>
<path class="Lay1 L2" d="M 62000,-45187.18 A 200,200 0 0,0 62400,-45187.18"/>
<line class="Lay1 L2" x1="62400" y1="-45187.18" x2="62400" y2="-45387.18"/>
<path class="Lay1 L2" d="M 62200,-44787.18 A 200,200 0 0,0 62600,-44787.18"/>
<line class="Lay1 L2" x1="63200" y1="-44387.18" x2="63200" y2="-44587.18"/>
<line class="Lay1 L2" x1="62800" y1="-44387.18" x2="62800" y2="-44587.18"/>
<line class="Lay1 L2" x1="63600" y1="-44387.18" x2="63600" y2="-44587.18"/>
<path class="Lay1 L2" d="M 62600,-44787.18 A 200,200 0 0,0 63000,-44787.18"/>
<line class="Lay1 L2" x1="63000" y1="-44787.18" x2="63000" y2="-44987.18"/>
<line class="Lay1 L2" x1="62600" y1="-44787.18" x2="62600" y2="-44987.18"/>
<path class="Lay1 L2" d="M 63000,-44787.18 A 200,200 0 0,0 63400,-44787.18"/>
<line class="Lay1 L2" x1="62800" y1="-45187.18" x2="62800" y2="-45387.18"/>
<path class="Lay1 L2" d="M 63400,-44787.18 A 200,200 0 0,0 63600,-44587.18"/>
<path class="Lay1 L2" d="M 63600,-44387.18 A 200,200 0 0,0 63626.79,-44287.18"/>
<path class="Lay1 L2" d="M 63200,-44387.18 A 200,200 0 0,0 63226.79,-44287.18"/>
<path class="Lay1 L2" d="M 63573.21,-44287.18 A 200,200 0 0,0 63600,-44387.18"/>
<path class="Lay1 L2" d="M 62800,-44387.18 A 200,200 0 0,0 62826.79,-44287.18"/>
<path class="Lay1 L2" d="M 63173.21,-44287.18 A 200,200 0 0,0 63200,-44387.18"/>
<path class="Lay1 L2" d="M 62400,-44387.18 A 200,200 0 0,0 62426.79,-44287.18"/>
<path class="Lay1 L2" d="M 62773.21,-44287.18 A 200,200 0 0,0 62800,-44387.18"/>
<path class="Lay1 L2" d="M 62000,-44387.18 A 200,200 0 0,0 62026.79,-44287.18"/>
<path class="Lay1 L2" d="M 62373.21,-44287.18 A 200,200 0 0,0 62400,-44387.18"/>
<path class="Lay1 L2" d="M 61600,-44387.18 A 200,200 0 0,0 61626.79,-44287.18"/>
<path class="Lay1 L2" d="M 61973.21,-44287.18 A 200,200 0 0,0 62000,-44387.18"/>
<path class="Lay1 L2" d="M 61200,-44387.18 A 200,200 0 0,0 61226.79,-44287.18"/>
<path class="Lay1 L2" d="M 61573.21,-44287.18 A 200,200 0 0,0 61600,-44387.18"/>
<line class="Lay1 L2" x1="61200" y1="-44387.18" x2="61200" y2="-44587.18"/>
<path class="Lay1 L2" d="M 61173.21,-44287.18 A 200,200 0 0,0 61200,-44387.18"/>
<path class="Lay1 L2" d="M 62400,-45187.18 A 200,200 0 0,0 62800,-45187.18"/>
<path class="Lay1 L2" d="M 62800,-45187.18 A 200,200 0 0,0 63141.42,-45045.76"/>
<path class="Lay1 L2" d="M 59400,-47987.18 A 200,200 0 0,0 59400.08,-47981.69"/>
<path class="Lay1 L2" d="M 59578.97,-47788.29 A 200,200 0 0,0 59800,-47987.18"/>
<path class="Lay1 L2" d="M 59600,-48387.18 A 200,200 0 0,0 59941.42,-48245.76"/>
<path class="Lay1 L2" d="M 59800,-47987.18 A 200,200 0 0,0 60200,-47987.18"/>
<path class="Lay1 L2" d="M 59885.07,-47406.18 A 200,200 0 0,0 60000,-47587.18"/>
<path class="Lay1 L2" d="M 60344.64,-46649.05 A 200,200 0 0,0 60400,-46787.18"/>
<path class="Lay1 L2" d="M 60131.27,-47036.29 A 200,200 0 0,0 60200,-47187.18"/>
<line class="Lay1 L2" x1="60800" y1="-45987.18" x2="60800" y2="-46187.18"/>
<path class="Lay1 L2" d="M 60678.54,-45803.25 A 200,200 0 0,0 60800,-45987.18"/>
<line class="Lay1 L2" x1="60400" y1="-47587.18" x2="60400" y2="-47787.18"/>
<path class="Lay1 L2" d="M 60400,-47587.18 A 200,200 0 0,0 60741.42,-47445.76"/>
<path class="Lay1 L2" d="M 60600,-47187.18 A 200,200 0 0,0 60900,-47013.97"/>
<path class="Lay1 L2" d="M 60800,-46787.18 A 200,200 0 0,0 60900,-46613.97"/>
<path class="Lay1 L2" d="M 60600,-46387.18 A 200,200 0 0,0 60900,-46213.97"/>
<path class="Lay1 L2" d="M 57800,-50387.18 A 200,200 0 0,0 58000,-50187.18"/>
<line class="Lay1 L2" x1="62000" y1="-45987.18" x2="62000" y2="-46187.18"/>
<path class="Lay1 L2" d="M 62200,-45587.18 A 200,200 0 0,0 62600,-45587.18"/>
<path class="Lay1 L2" d="M 61400,-45587.18 A 200,200 0 0,0 61800,-45587.18"/>
<path class="Lay1 L2" d="M 61400,-46387.18 A 200,200 0 0,0 61800,-46387.18"/>
<line class="Lay1 L2" x1="61400" y1="-45587.18" x2="61400" y2="-45787.18"/>
<line class="Lay1 L2" x1="61400" y1="-46387.18" x2="61400" y2="-46587.18"/>
<path class="Lay1 L2" d="M 61380,-45788.18 A 200,200 0 0,0 61600,-45987.18"/>
<path class="Lay1 L2" d="M 61380,-44988.18 A 200,200 0 0,0 61600,-45187.18"/>
<path class="Lay1 L2" d="M 61380,-44700 A 200,200 0 0,0 61400,-44787.18"/>
<path class="Lay1 L2" d="M 62000,-45987.18 A 200,200 0 0,0 62341.42,-45845.76"/>
<path class="Lay1 L2" d="M 61380,-46588.18 A 200,200 0 0,0 61541.42,-46645.76"/>
<path class="Lay1 L2" d="M 60800,-45987.18 A 200,200 0 0,0 60900,-45813.97"/>
<path class="Lay1 L2" d="M 60784.46,-45387.78 A 200,200 0 0,0 60900,-45413.97"/>
<path class="Lay1 L2" d="M 60842.84,-45063.49 A 200,200 0 0,0 60900,-45013.97"/>
<path class="Lay1 L2" d="M 58600,-49587.18 A 200,200 0 0,0 58800,-49387.18"/>
<path class="Lay1 L2" d="M 60200,-47987.18 A 200,200 0 0,0 60400,-47787.18"/>
<path class="Lay1 L2" d="M 59400,-48787.18 A 200,200 0 0,0 59600,-48587.18"/>
<path class="Lay1 L2" d="M 61800,-46387.18 A 200,200 0 0,0 62000,-46187.18"/>
<path class="Lay1 L2" d="M 62600,-45587.18 A 200,200 0 0,0 62800,-45387.18"/>
<path class="Lay1 L2" d="M 57000,-51187.18 A 200,200 0 0,0 57200,-50987.18"/>
<path class="Lay1 L2" d="M 56200,-51987.18 A 200,200 0 0,0 56400,-51787.18"/>
<path class="Lay1 L2" d="M 55840,-52191.22 A 200,200 0 0,0 55941.42,-52245.76"/>
<path class="Lay1 L2" d="M 55600,-52387.18 A 200,200 0 0,0 55626.79,-52287.18"/>
<path class="Lay1 L2" d="M 54800,-51587.18 A 200,200 0 0,0 55200,-51587.18"/>
<path class="Lay1 L2" d="M 54600,-51187.18 A 200,200 0 0,0 55000,-51187.18"/>
<path class="Lay1 L2" d="M 54800,-50787.18 A 200,200 0 0,0 55200,-50787.18"/>
<line class="Lay1 L2" x1="55000" y1="-51187.18" x2="55000" y2="-51387.18"/>
<line class="Lay1 L2" x1="54800" y1="-50787.18" x2="54800" y2="-50987.18"/>
<line class="Lay1 L2" x1="55200" y1="-50787.18" x2="55200" y2="-50987.18"/>
<line class="Lay1 L2" x1="55200" y1="-51587.18" x2="55200" y2="-51787.18"/>
<line class="Lay1 L2" x1="54800" y1="-51587.18" x2="54800" y2="-51787.18"/>
<line class="Lay1 L2" x1="54600" y1="-51187.18" x2="54600" y2="-51387.18"/>
<path class="Lay1 L2" d="M 54400,-50787.18 A 200,200 0 0,0 54800,-50787.18"/>
<path class="Lay1 L2" d="M 54600,-50387.18 A 200,200 0 0,0 55000,-50387.18"/>
<line class="Lay1 L2" x1="54600" y1="-50387.18" x2="54600" y2="-50587.18"/>
<line class="Lay1 L2" x1="55000" y1="-50387.18" x2="55000" y2="-50587.18"/>
<line class="Lay1 L2" x1="54400" y1="-50787.18" x2="54400" y2="-50987.18"/>
<path class="Lay1 L2" d="M 54200,-50387.18 A 200,200 0 0,0 54600,-50387.18"/>
<path class="Lay1 L2" d="M 54400,-49987.18 A 200,200 0 0,0 54800,-49987.18"/>
<line class="Lay1 L2" x1="54400" y1="-49987.18" x2="54400" y2="-50187.18"/>
<line class="Lay1 L2" x1="54800" y1="-49987.18" x2="54800" y2="-50187.18"/>
<line class="Lay1 L2" x1="54200" y1="-50387.18" x2="54200" y2="-50587.18"/>
<path class="Lay1 L2" d="M 54000,-49987.18 A 200,200 0 0,0 54400,-49987.18"/>
<line class="Lay1 L2" x1="54200" y1="-49587.18" x2="54200" y2="-49787.18"/>
<line class="Lay1 L2" x1="54600" y1="-49587.18" x2="54600" y2="-49787.18"/>
<line class="Lay1 L2" x1="54000" y1="-49987.18" x2="54000" y2="-50187.18"/>
<path class="Lay1 L2" d="M 54200,-51187.18 A 200,200 0 0,0 54600,-51187.18"/>
<path class="Lay1 L2" d="M 54000,-50787.18 A 200,200 0 0,0 54400,-50787.18"/>
<line class="Lay1 L2" x1="54000" y1="-50787.18" x2="54000" y2="-50987.18"/>
<path class="Lay1 L2" d="M 53800,-50387.18 A 200,200 0 0,0 54200,-50387.18"/>
<line class="Lay1 L2" x1="53800" y1="-50387.18" x2="53800" y2="-50587.18"/>
<line class="Lay1 L2" x1="55600" y1="-52387.18" x2="55600" y2="-52587.18"/>
<path class="Lay1 L2" d="M 54458.58,-51445.76 A 200,200 0 0,0 54800,-51587.18"/>
<path class="Lay1 L2" d="M 55000,-51987.18 A 200,200 0 0,0 55360,-51867.18"/>
<path class="Lay1 L2" d="M 55200,-51587.18 A 200,200 0 0,0 55360,-51391.22"/>
<path class="Lay1 L2" d="M 55000,-51187.18 A 200,200 0 0,0 55360,-51067.18"/>
<path class="Lay1 L2" d="M 53800,-49587.18 A 200,200 0 0,0 54200,-49587.18"/>
<line class="Lay1 L2" x1="53800" y1="-49587.18" x2="53800" y2="-49787.18"/>
<path class="Lay1 L2" d="M 53600,-49987.18 A 200,200 0 0,0 54000,-49987.18"/>
<line class="Lay1 L2" x1="53600" y1="-49987.18" x2="53600" y2="-50187.18"/>
<path class="Lay1 L2" d="M 53400,-50387.18 A 200,200 0 0,0 53800,-50387.18"/>
<line class="Lay1 L2" x1="53600" y1="-49187.18" x2="53600" y2="-49387.18"/>
<path class="Lay1 L2" d="M 53400,-49587.18 A 200,200 0 0,0 53800,-49587.18"/>
<line class="Lay1 L2" x1="53400" y1="-49587.18" x2="53400" y2="-49787.18"/>
<path class="Lay1 L2" d="M 53200,-49987.18 A 200,200 0 0,0 53600,-49987.18"/>
<line class="Lay1 L2" x1="53200" y1="-49987.18" x2="53200" y2="-50187.18"/>
<path class="Lay1 L2" d="M 54800,-49987.18 A 200,200 0 0,0 55200,-49987.18"/>
<line class="Lay1 L2" x1="55200" y1="-49987.18" x2="55200" y2="-50187.18"/>
<line class="Lay1 L2" x1="55000" y1="-49587.18" x2="55000" y2="-49787.18"/>
<path class="Lay1 L2" d="M 55200,-50787.18 A 200,200 0 0,0 55360,-50591.22"/>
<path class="Lay1 L2" d="M 55000,-50387.18 A 200,200 0 0,0 55360,-50267.18"/>
<path class="Lay1 L2" d="M 53658.58,-50645.76 A 200,200 0 0,0 54000,-50787.18"/>
<path class="Lay1 L2" d="M 55200,-49987.18 A 200,200 0 0,0 55600,-49987.18"/>
<line class="Lay1 L2" x1="55400" y1="-49587.18" x2="55400" y2="-49787.18"/>
<line class="Lay1 L2" x1="55600" y1="-50127.18" x2="55600" y2="-49987.18"/>
<path class="Lay1 L2" d="M 55400,-49787.18 A 200,200 0 0,0 55600,-49587.18"/>
<path class="Lay1 L2" d="M 55399.96,-49583.4 A 200,200 0 0,0 55400,-49587.18"/>
<path class="Lay1 L2" d="M 55000,-49587.18 A 200,200 0 0,0 55002.87,-49553.43"/>
<path class="Lay1 L2" d="M 54997.02,-49552.77 A 200,200 0 0,0 55000,-49587.18"/>
<path class="Lay1 L2" d="M 54600,-49587.18 A 200,200 0 0,0 54621.92,-49496.15"/>
<path class="Lay1 L2" d="M 54572.93,-49486.71 A 200,200 0 0,0 54600,-49587.18"/>
<path class="Lay1 L2" d="M 54200,-49587.18 A 200,200 0 0,0 54287.21,-49422.02"/>
<line class="Lay1 L2" x1="54000" y1="-49339.9" x2="54000" y2="-49387.18"/>
<line class="Lay1 L2" x1="53200" y1="-49187.18" x2="53200" y2="-49387.18"/>
<path class="Lay1 L2" d="M 53000,-49587.18 A 200,200 0 0,0 53400,-49587.18"/>
<line class="Lay1 L2" x1="53000" y1="-49587.18" x2="53000" y2="-49787.18"/>
<path class="Lay1 L2" d="M 52800,-49187.18 A 200,200 0 0,0 53200,-49187.18"/>
<line class="Lay1 L2" x1="52800" y1="-49187.18" x2="52800" y2="-49387.18"/>
<path class="Lay1 L2" d="M 52600,-49587.18 A 200,200 0 0,0 53000,-49587.18"/>
<path class="Lay1 L2" d="M 52400,-49187.18 A 200,200 0 0,0 52800,-49187.18"/>
<line class="Lay1 L2" x1="52400" y1="-49187.18" x2="52400" y2="-49387.18"/>
<line class="Lay1 L2" x1="52600" y1="-48787.18" x2="52600" y2="-48987.18"/>
<line class="Lay1 L2" x1="52200" y1="-48787.18" x2="52200" y2="-48987.18"/>
<path class="Lay1 L2" d="M 52200,-48787.18 A 200,200 0 0,0 52600,-48787.18"/>
<line class="Lay1 L2" x1="52200" y1="-48787.18" x2="52200" y2="-48987.18"/>
<line class="Lay1 L2" x1="52000" y1="-48387.18" x2="52000" y2="-48587.18"/>
<path class="Lay1 L2" d="M 51600,-48387.18 A 200,200 0 0,0 52000,-48387.18"/>
<line class="Lay1 L2" x1="51600" y1="-48387.18" x2="51600" y2="-48587.18"/>
<path class="Lay1 L2" d="M 51800,-48787.18 A 200,200 0 0,0 52200,-48787.18"/>
<path class="Lay1 L2" d="M 52000,-48387.18 A 200,200 0 0,0 52066.97,-48237.84"/>
<path class="Lay1 L2" d="M 52600,-48787.18 A 200,200 0 0,0 52632.21,-48678.33"/>
<line class="Lay1 L2" x1="53000" y1="-48905.62" x2="53000" y2="-48987.18"/>
<line class="Lay1 L2" x1="52400" y1="-48512.11" x2="52400" y2="-48587.18"/>
<path class="Lay1 L2" d="M 52058.58,-49045.76 A 200,200 0 0,0 52400,-49187.18"/>
<path class="Lay1 L2" d="M 52858.58,-49845.76 A 200,200 0 0,0 53200,-49987.18"/>
<path class="Lay1 L2" d="M 53200,-49187.18 A 200,200 0 0,0 53261.17,-49043.22"/>
<line class="Lay1 L2" x1="51800" y1="-47987.18" x2="51800" y2="-48187.18"/>
<line class="Lay1 L2" x1="51400" y1="-47987.18" x2="51400" y2="-48187.18"/>
<line class="Lay1 L2" x1="51200" y1="-47587.18" x2="51200" y2="-47787.18"/>
<line class="Lay1 L2" x1="51000" y1="-47187.18" x2="51000" y2="-47387.18"/>
<path class="Lay1 L2" d="M 50800,-47587.18 A 200,200 0 0,0 51200,-47587.18"/>
<line class="Lay1 L2" x1="50800" y1="-46787.18" x2="50800" y2="-46987.18"/>
<path class="Lay1 L2" d="M 50600,-47187.18 A 200,200 0 0,0 51000,-47187.18"/>
<line class="Lay1 L2" x1="50600" y1="-47187.18" x2="50600" y2="-47387.18"/>
<line class="Lay1 L2" x1="50600" y1="-46387.18" x2="50600" y2="-46587.18"/>
<path class="Lay1 L2" d="M 50400,-46787.18 A 200,200 0 0,0 50800,-46787.18"/>
<line class="Lay1 L2" x1="50400" y1="-46787.18" x2="50400" y2="-46987.18"/>
<line class="Lay1 L2" x1="49600" y1="-45987.18" x2="49600" y2="-46187.18"/>
<line class="Lay1 L2" x1="49600" y1="-45987.18" x2="49600" y2="-46187.18"/>
<line class="Lay1 L2" x1="49400" y1="-45587.18" x2="49400" y2="-45787.18"/>
<path class="Lay1 L2" d="M 49000,-45587.18 A 200,200 0 0,0 49400,-45587.18"/>
<line class="Lay1 L2" x1="49000" y1="-45587.18" x2="49000" y2="-45787.18"/>
<path class="Lay1 L2" d="M 49200,-45987.18 A 200,200 0 0,0 49600,-45987.18"/>
<path class="Lay1 L2" d="M 50600,-46387.18 A 200,200 0 0,0 50661.17,-46243.22"/>
<line class="Lay1 L2" x1="49600" y1="-45187.18" x2="49600" y2="-45387.18"/>
<path class="Lay1 L2" d="M 49200,-45187.18 A 200,200 0 0,0 49600,-45187.18"/>
<path class="Lay1 L2" d="M 49400,-44787.18 A 200,200 0 0,0 49800,-44787.18"/>
<line class="Lay1 L2" x1="49400" y1="-44787.18" x2="49400" y2="-44987.18"/>
<line class="Lay1 L2" x1="49800" y1="-44787.18" x2="49800" y2="-44987.18"/>
<line class="Lay1 L2" x1="49200" y1="-45187.18" x2="49200" y2="-45387.18"/>
<path class="Lay1 L2" d="M 49000,-44787.18 A 200,200 0 0,0 49400,-44787.18"/>
<line class="Lay1 L2" x1="49200" y1="-44387.18" x2="49200" y2="-44587.18"/>
<line class="Lay1 L2" x1="49600" y1="-44387.18" x2="49600" y2="-44587.18"/>
<line class="Lay1 L2" x1="49000" y1="-44787.18" x2="49000" y2="-44987.18"/>
<line class="Lay1 L2" x1="48800" y1="-44387.18" x2="48800" y2="-44587.18"/>
<path class="Lay1 L2" d="M 48800,-45187.18 A 200,200 0 0,0 49200,-45187.18"/>
<line class="Lay1 L2" x1="48800" y1="-45187.18" x2="48800" y2="-45387.18"/>
<path class="Lay1 L2" d="M 48600,-44787.18 A 200,200 0 0,0 49000,-44787.18"/>
<line class="Lay1 L2" x1="48000" y1="-44387.18" x2="48000" y2="-44587.18"/>
<line class="Lay1 L2" x1="48400" y1="-44387.18" x2="48400" y2="-44587.18"/>
<line class="Lay1 L2" x1="47600" y1="-44387.18" x2="47600" y2="-44587.18"/>
<path class="Lay1 L2" d="M 48200,-44787.18 A 200,200 0 0,0 48600,-44787.18"/>
<line class="Lay1 L2" x1="48200" y1="-44787.18" x2="48200" y2="-44987.18"/>
<line class="Lay1 L2" x1="48600" y1="-44787.18" x2="48600" y2="-44987.18"/>
<path class="Lay1 L2" d="M 47800,-44787.18 A 200,200 0 0,0 48200,-44787.18"/>
<line class="Lay1 L2" x1="48400" y1="-45187.18" x2="48400" y2="-45387.18"/>
<path class="Lay1 L2" d="M 47600,-44587.18 A 200,200 0 0,0 47800,-44787.18"/>
<path class="Lay1 L2" d="M 47573.21,-44287.18 A 200,200 0 0,0 47600,-44387.18"/>
<path class="Lay1 L2" d="M 47973.21,-44287.18 A 200,200 0 0,0 48000,-44387.18"/>
<path class="Lay1 L2" d="M 47600,-44387.18 A 200,200 0 0,0 47626.79,-44287.18"/>
<path class="Lay1 L2" d="M 48373.21,-44287.18 A 200,200 0 0,0 48400,-44387.18"/>
<path class="Lay1 L2" d="M 48000,-44387.18 A 200,200 0 0,0 48026.79,-44287.18"/>
<path class="Lay1 L2" d="M 48773.21,-44287.18 A 200,200 0 0,0 48800,-44387.18"/>
<path class="Lay1 L2" d="M 48400,-44387.18 A 200,200 0 0,0 48426.79,-44287.18"/>
<path class="Lay1 L2" d="M 49173.21,-44287.18 A 200,200 0 0,0 49200,-44387.18"/>
<path class="Lay1 L2" d="M 48800,-44387.18 A 200,200 0 0,0 48826.79,-44287.18"/>
<path class="Lay1 L2" d="M 49573.21,-44287.18 A 200,200 0 0,0 49600,-44387.18"/>
<path class="Lay1 L2" d="M 49200,-44387.18 A 200,200 0 0,0 49226.79,-44287.18"/>
<path class="Lay1 L2" d="M 49973.21,-44287.18 A 200,200 0 0,0 50000,-44387.18"/>
<path class="Lay1 L2" d="M 49600,-44387.18 A 200,200 0 0,0 49626.79,-44287.18"/>
<line class="Lay1 L2" x1="50000" y1="-44387.18" x2="50000" y2="-44587.18"/>
<path class="Lay1 L2" d="M 50000,-44387.18 A 200,200 0 0,0 50026.79,-44287.18"/>
<path class="Lay1 L2" d="M 48400,-45187.18 A 200,200 0 0,0 48800,-45187.18"/>
<path class="Lay1 L2" d="M 48058.58,-45045.76 A 200,200 0 0,0 48400,-45187.18"/>
<path class="Lay1 L2" d="M 51799.92,-47981.69 A 200,200 0 0,0 51800,-47987.18"/>
<path class="Lay1 L2" d="M 51400,-47987.18 A 200,200 0 0,0 51621.03,-47788.29"/>
<path class="Lay1 L2" d="M 51258.58,-48245.76 A 200,200 0 0,0 51600,-48387.18"/>
<path class="Lay1 L2" d="M 51000,-47987.18 A 200,200 0 0,0 51400,-47987.18"/>
<path class="Lay1 L2" d="M 51200,-47587.18 A 200,200 0 0,0 51314.93,-47406.18"/>
<path class="Lay1 L2" d="M 50800,-46787.18 A 200,200 0 0,0 50855.36,-46649.05"/>
<path class="Lay1 L2" d="M 51000,-47187.18 A 200,200 0 0,0 51068.73,-47036.29"/>
<line class="Lay1 L2" x1="50400" y1="-45987.18" x2="50400" y2="-46187.18"/>
<path class="Lay1 L2" d="M 50400,-45987.18 A 200,200 0 0,0 50521.46,-45803.25"/>
<line class="Lay1 L2" x1="50800" y1="-47587.18" x2="50800" y2="-47787.18"/>
<path class="Lay1 L2" d="M 50458.58,-47445.76 A 200,200 0 0,0 50800,-47587.18"/>
<path class="Lay1 L2" d="M 50300,-47013.97 A 200,200 0 0,0 50600,-47187.18"/>
<path class="Lay1 L2" d="M 50300,-46613.97 A 200,200 0 0,0 50400,-46787.18"/>
<path class="Lay1 L2" d="M 50300,-46213.97 A 200,200 0 0,0 50600,-46387.18"/>
<path class="Lay1 L2" d="M 53200,-50187.18 A 200,200 0 0,0 53400,-50387.18"/>
<line class="Lay1 L2" x1="49200" y1="-45987.18" x2="49200" y2="-46187.18"/>
<path class="Lay1 L2" d="M 48600,-45587.18 A 200,200 0 0,0 49000,-45587.18"/>
<path class="Lay1 L2" d="M 49400,-45587.18 A 200,200 0 0,0 49800,-45587.18"/>
<path class="Lay1 L2" d="M 49400,-46387.18 A 200,200 0 0,0 49800,-46387.18"/>
<line class="Lay1 L2" x1="49800" y1="-45587.18" x2="49800" y2="-45787.18"/>
<line class="Lay1 L2" x1="49800" y1="-46387.18" x2="49800" y2="-46587.18"/>
<path class="Lay1 L2" d="M 49600,-45987.18 A 200,200 0 0,0 49820,-45788.18"/>
<path class="Lay1 L2" d="M 49600,-45187.18 A 200,200 0 0,0 49820,-44988.18"/>
<path class="Lay1 L2" d="M 49800,-44787.18 A 200,200 0 0,0 49820,-44700"/>
<path class="Lay1 L2" d="M 48858.58,-45845.76 A 200,200 0 0,0 49200,-45987.18"/>
<path class="Lay1 L2" d="M 49658.58,-46645.76 A 200,200 0 0,0 49820,-46588.18"/>
<path class="Lay1 L2" d="M 50300,-45813.97 A 200,200 0 0,0 50400,-45987.18"/>
<path class="Lay1 L2" d="M 50300,-45413.97 A 200,200 0 0,0 50415.54,-45387.78"/>
<path class="Lay1 L2" d="M 50300,-45013.97 A 200,200 0 0,0 50357.16,-45063.49"/>
<path class="Lay1 L2" d="M 52400,-49387.18 A 200,200 0 0,0 52600,-49587.18"/>
<path class="Lay1 L2" d="M 50800,-47787.18 A 200,200 0 0,0 51000,-47987.18"/>
<path class="Lay1 L2" d="M 51600,-48587.18 A 200,200 0 0,0 51800,-48787.18"/>
<path class="Lay1 L2" d="M 49200,-46187.18 A 200,200 0 0,0 49400,-46387.18"/>
<path class="Lay1 L2" d="M 48400,-45387.18 A 200,200 0 0,0 48600,-45587.18"/>
<path class="Lay1 L2" d="M 54000,-50987.18 A 200,200 0 0,0 54200,-51187.18"/>
<path class="Lay1 L2" d="M 54800,-51787.18 A 200,200 0 0,0 55000,-51987.18"/>
<path class="Lay1 L2" d="M 55258.58,-52245.76 A 200,200 0 0,0 55360,-52191.22"/>
<path class="Lay1 L2" d="M 55573.21,-52287.18 A 200,200 0 0,0 55600,-52387.18"/>
</g>
</svg>
