<?xml version="1.0" encoding="iso-8859-1"?>
<!-- Created by CadStd Pro version 3.7.6 see : "http://www.cadstd.com" -->
<svg version="1.1" baseProfile="full" id="cadstd" preserveAspectRatio="xMidYMid meet" xml:space="preserve" style="overflow:visible" 
viewBox="0 -10204.08 13205.28 10204.08" xmlns="http://www.w3.org/2000/svg" xmlns:xlink="http://www.w3.org/1999/xlink">
<defs>
<style type="text/css"><![CDATA[
text.T1 {
stroke-linejoin:round;stroke-linecap:round;
stroke-width:0px;
font-weight: normal;
font-style: normal;
font-size:1.20048in;
font-family:Sans-Serif;
text-anchor:start
}
text.T2 {
stroke-linejoin:round;stroke-linecap:round;
stroke-width:0px;
font-weight: normal;
font-style: normal;
font-size:2.40096in;
font-family:Sans-Serif;
text-anchor:start
}
text.T3 {
stroke-linejoin:round;stroke-linecap:round;
stroke-width:0px;
font-weight: normal;
font-style: normal;
font-size:3.60144in;
font-family:Sans-Serif;
text-anchor:start
}
text.T4 {
stroke-linejoin:round;stroke-linecap:round;
stroke-width:0px;
font-weight: bold;
font-style: normal;
font-size:4.80192in;
font-family:Sans-Serif;
text-anchor:start
}
text.T5 {
stroke-linejoin:round;stroke-linecap:round;
stroke-width:0px;
font-weight: bold;
font-style: normal;
font-size:4.80192in;
font-family:Sans-Serif;
text-anchor:start
}
*.L0 {
fill: none;stroke-linejoin:round;stroke-linecap: round;
stroke-width:10.8;
}
*.L1 {
fill: none;stroke-linejoin:round;stroke-linecap: round;
stroke-width:28.81;
}
*.L2 {
fill: none;stroke-linejoin:round;stroke-linecap: round;
stroke-width:10.8;
}
*.L3 {
fill: none;stroke-linejoin:round;stroke-linecap: round;
stroke-width:10.8;
stroke-dasharray:
150.06,37.52;
}
*.L4 {
fill: none;stroke-linejoin:round;stroke-linecap: round;
stroke-width:10.8;
stroke-dasharray:
900.36,75.03,150.06,75.03;
}
*.L5 {
fill: none;stroke-linejoin:round;stroke-linecap: round;
stroke-width:28.81;
stroke-dasharray:
300.12,75.03;
}
*.L6 {
fill: none;stroke-linejoin:round;stroke-linecap: round;
stroke-width:28.81;
stroke-dasharray:
900.36,75.03,150.06,75.03,150.06,75.03;
}
*.L7 {
fill: none;stroke-linejoin:round;stroke-linecap: round;
stroke-width:10.8;
stroke-dasharray:
900.36,75.03,150.06,75.03,150.06,75.03;
}
*.L8 {
fill: none;stroke-linejoin:round;stroke-linecap: round;
stroke-width:10.8;
stroke-dasharray:
75.03,75.03;
}
*.L9 {
fill: none;stroke-linejoin:round;stroke-linecap: round;
stroke-width:10.8;
stroke-dasharray:
0.01,75.02;
}
*.L10 {
fill: none;stroke-linejoin:round;stroke-linecap: round;
stroke-width:28.81;
stroke-dasharray:
450.18,75.03,75.03,75.03;
}
*.L11 {
fill: none;stroke-linejoin:round;stroke-linecap: round;
stroke-width:0;
}
   *.Lay0 { stroke:Black }
line.Lay0, text.Lay0 { stroke:Black; fill:Black }
   *.Lay1 { stroke:Yellow }
line.Lay1, text.Lay1 { stroke:Yellow; fill:Yellow }
   *.Lay2 { stroke:Aqua }
line.Lay2, text.Lay2 { stroke:Aqua; fill:Aqua }
   *.Lay3 { stroke:Lime }
line.Lay3, text.Lay3 { stroke:Lime; fill:Lime }
   *.Lay4 { stroke:Gray }
line.Lay4, text.Lay4 { stroke:Gray; fill:Gray }
   *.Lay5 { stroke:Blue }
line.Lay5, text.Lay5 { stroke:Blue; fill:Blue }
   *.Lay6 { stroke:Fuchsia }
line.Lay6, text.Lay6 { stroke:Fuchsia; fill:Fuchsia }
   *.Lay7 { stroke:Red }
line.Lay7, text.Lay7 { stroke:Red; fill:Red }
   *.Lay8 { stroke:Gold }
line.Lay8, text.Lay8 { stroke:Gold; fill:Gold }
   *.Lay9 { stroke:Orange }
line.Lay9, text.Lay9 { stroke:Orange; fill:Orange }
   *.Lay10 { stroke:Teal }
line.Lay10, text.Lay10 { stroke:Teal; fill:Teal }
   *.Lay11 { stroke:Green }
line.Lay11, text.Lay11 { stroke:Green; fill:Green }
   *.Lay12 { stroke:Silver }
line.Lay12, text.Lay12 { stroke:Silver; fill:Silver }
   *.Lay13 { stroke:Navy }
line.Lay13, text.Lay13 { stroke:Navy; fill:Navy }
   *.Lay14 { stroke:Purple }
line.Lay14, text.Lay14 { stroke:Purple; fill:Purple }
   *.Lay15 { stroke:Sienna }
line.Lay15, text.Lay15 { stroke:Sienna; fill:Sienna }
]]>
</style>
</defs>
<g transform="scale(1.0),translate(0,0)">
<line class="Lay0 L1" x1="1300" y1="-750" x2="11300" y2="-750"/>
<line class="Lay0 L1" x1="4300" y1="-5750" x2="4300" y2="-750"/>
<line class="Lay0 L1" x1="7300" y1="-4750" x2="7300" y2="-750"/>
<line class="Lay0 L1" x1="7550" y1="-4750" x2="7550" y2="-750"/>
<line class="Lay0 L1" x1="7550" y1="-3250" x2="11050" y2="-3250"/>
<line class="Lay0 L1" x1="7550" y1="-1750" x2="11050" y2="-1750"/>
<line class="Lay0 L1" x1="1550" y1="-4750" x2="4050" y2="-4750"/>
<line class="Lay0 L1" x1="1550" y1="-3250" x2="4050" y2="-3250"/>
<line class="Lay0 L1" x1="2800" y1="-3250" x2="2800" y2="-1000"/>
<line class="Lay0 L1" x1="9300" y1="-3250" x2="9300" y2="-4750"/>
<path class="Lay0 L1" d="M 1550,-6000 A 250,250 0 0,0 1300,-5750"/>
<line class="Lay0 L1" x1="1550" y1="-6000" x2="4050" y2="-6000"/>
<line class="Lay0 L1" x1="1300" y1="-5750" x2="1300" y2="-750"/>
<line class="Lay0 L1" x1="1300" y1="-5750" x2="4300" y2="-5750"/>
<line class="Lay0 L1" x1="4050" y1="-6000" x2="4300" y2="-5750"/>
<path class="Lay0 L1" d="M 4300,-7250 A 250,250 0 0,0 4050,-7000"/>
<line class="Lay0 L1" x1="4050" y1="-7000" x2="4050" y2="-6000"/>
<line class="Lay0 L1" x1="4300" y1="-5750" x2="7300" y2="-5750"/>
<line class="Lay0 L1" x1="4300" y1="-2500" x2="7300" y2="-2500"/>
<line class="Lay0 L1" x1="4300" y1="-4125" x2="7300" y2="-4125"/>
<path class="Lay0 L1" d="M 7800,-4750 A 250,250 0 0,0 7550,-4500"/>
<path class="Lay0 L1" d="M 7550,-3500 A 250,250 0 0,0 7800,-3250"/>
<path class="Lay0 L1" d="M 10800,-3250 A 250,250 0 0,0 11050,-3500"/>
<path class="Lay0 L1" d="M 11050,-4500 A 250,250 0 0,0 10800,-4750"/>
<path class="Lay0 L1" d="M 9550,-4750 A 250,250 0 0,0 9300,-4500"/>
<path class="Lay0 L1" d="M 9300,-3500 A 250,250 0 0,0 9550,-3250"/>
<path class="Lay0 L1" d="M 9300,-4500 A 250,250 0 0,0 9050,-4750"/>
<path class="Lay0 L1" d="M 9050,-3250 A 250,250 0 0,0 9300,-3500"/>
<path class="Lay0 L1" d="M 1800,-3250 A 250,250 0 0,0 1550,-3000"/>
<path class="Lay0 L1" d="M 1550,-1250 A 250,250 0 0,0 1800,-1000"/>
<path class="Lay0 L1" d="M 3800,-1000 A 250,250 0 0,0 4050,-1250"/>
<path class="Lay0 L1" d="M 4050,-3000 A 250,250 0 0,0 3800,-3250"/>
<path class="Lay0 L1" d="M 7550,-7000 A 250,250 0 0,0 7300,-7250"/>
<line class="Lay0 L1" x1="7300" y1="-7250" x2="4300" y2="-7250"/>
<line class="Lay0 L1" x1="7550" y1="-7000" x2="7550" y2="-5000"/>
<path class="Lay0 L1" d="M 11300,-4750 A 250,250 0 0,0 11050,-5000"/>
<line class="Lay0 L1" x1="7550" y1="-5000" x2="7300" y2="-4750"/>
<line class="Lay0 L1" x1="11300" y1="-4750" x2="11300" y2="-750"/>
<line class="Lay0 L1" x1="11050" y1="-5000" x2="7550" y2="-5000"/>
<line class="Lay0 L1" x1="7550" y1="-1825" x2="11050" y2="-1825"/>
<line class="Lay0 L1" x1="1550" y1="-4825" x2="4050" y2="-4825"/>
<line class="Lay0 L1" x1="4300" y1="-2575" x2="7300" y2="-2575"/>
<line class="Lay0 L1" x1="4300" y1="-4200" x2="7300" y2="-4200"/>
<line class="Lay0 L1" x1="4050" y1="-750" x2="4050" y2="-5750"/>
<line class="Lay0 L1" x1="1550" y1="-1000" x2="4050" y2="-1000"/>
<line class="Lay0 L1" x1="4300" y1="-1000" x2="7300" y2="-1000"/>
<line class="Lay0 L1" x1="7550" y1="-1000" x2="11050" y2="-1000"/>
<line class="Lay0 L1" x1="2650" y1="-1900" x2="2650" y2="-2350"/>
<path class="Lay0 L1" d="M 2650,-2350 A 100,100 0 0,0 2550,-2250"/>
<path class="Lay0 L1" d="M 2550,-2000 A 100,100 0 0,0 2650,-1900"/>
<line class="Lay0 L1" x1="2550" y1="-2250" x2="2550" y2="-2000"/>
<line class="Lay0 L1" x1="2950" y1="-1900" x2="2950" y2="-2350"/>
<path class="Lay0 L1" d="M 3050,-2250 A 100,100 0 0,0 2950,-2350"/>
<path class="Lay0 L1" d="M 2950,-1900 A 100,100 0 0,0 3050,-2000"/>
<line class="Lay0 L1" x1="3050" y1="-2250" x2="3050" y2="-2000"/>
<line class="Lay0 L1" x1="9150" y1="-3775" x2="9150" y2="-4225"/>
<path class="Lay0 L1" d="M 9150,-4225 A 100,100 0 0,0 9050,-4125"/>
<path class="Lay0 L1" d="M 9050,-3875 A 100,100 0 0,0 9150,-3775"/>
<line class="Lay0 L1" x1="9050" y1="-4125" x2="9050" y2="-3875"/>
<line class="Lay0 L1" x1="9450" y1="-3775" x2="9450" y2="-4225"/>
<path class="Lay0 L1" d="M 9550,-4125 A 100,100 0 0,0 9450,-4225"/>
<path class="Lay0 L1" d="M 9450,-3775 A 100,100 0 0,0 9550,-3875"/>
<line class="Lay0 L1" x1="9550" y1="-4125" x2="9550" y2="-3875"/>
<line class="Lay0 L1" x1="7550" y1="-7000" x2="4050" y2="-7000"/>
<line class="Lay0 L1" x1="7300" y1="-7250" x2="7300" y2="-4750"/>
<line class="Lay0 L1" x1="4300" y1="-5750" x2="4300" y2="-7250"/>
<line class="Lay0 L1" x1="1550" y1="-6000" x2="1550" y2="-750"/>
<line class="Lay0 L1" x1="11050" y1="-5000" x2="11050" y2="-750"/>
<line class="Lay0 L1" x1="7300" y1="-4750" x2="11300" y2="-4750"/>
<line class="Lay0 L1" x1="5800" y1="-7000" x2="5800" y2="-5750"/>
<line class="Lay0 L1" x1="5650" y1="-6150" x2="5650" y2="-6600"/>
<path class="Lay0 L1" d="M 5650,-6600 A 100,100 0 0,0 5550,-6500"/>
<path class="Lay0 L1" d="M 5550,-6250 A 100,100 0 0,0 5650,-6150"/>
<line class="Lay0 L1" x1="5550" y1="-6500" x2="5550" y2="-6250"/>
<line class="Lay0 L1" x1="5950" y1="-6150" x2="5950" y2="-6600"/>
<path class="Lay0 L1" d="M 6050,-6500 A 100,100 0 0,0 5950,-6600"/>
<path class="Lay0 L1" d="M 5950,-6150 A 100,100 0 0,0 6050,-6250"/>
<line class="Lay0 L1" x1="6050" y1="-6500" x2="6050" y2="-6250"/>
<path class="Lay0 L1" d="M 4550,-7000 A 250,250 0 0,0 4300,-6750"/>
<path class="Lay0 L1" d="M 4300,-6000 A 250,250 0 0,0 4550,-5750"/>
<path class="Lay0 L1" d="M 7050,-5750 A 250,250 0 0,0 7300,-6000"/>
<path class="Lay0 L1" d="M 7300,-6750 A 250,250 0 0,0 7050,-7000"/>
<circle class="Lay0 L1" cx="4300" cy="-9000" r="500"/>
<circle class="Lay0 L1" cx="4300" cy="-9000" r="750"/>
<line class="Lay0 L1" x1="4800" y1="-9000" x2="5050" y2="-9000"/>
<line class="Lay0 L1" x1="4300" y1="-9500" x2="4300" y2="-9750"/>
<line class="Lay0 L1" x1="3800" y1="-9000" x2="3550" y2="-9000"/>
<line class="Lay0 L1" x1="4300" y1="-8500" x2="4300" y2="-8250"/>
<line class="Lay0 L1" x1="5800" y1="-9000" x2="5800" y2="-8000"/>
<line class="Lay0 L1" x1="5550" y1="-8750" x2="9050" y2="-8750"/>
<line class="Lay0 L1" x1="8800" y1="-9000" x2="8800" y2="-8000"/>
<line class="Lay0 L1" x1="9050" y1="-8250" x2="5550" y2="-8250"/>
<line class="Lay0 L1" x1="1550" y1="-8000" x2="3550" y2="-8000"/>
<line class="Lay0 L1" x1="3300" y1="-8250" x2="3300" y2="-6500"/>
<line class="Lay0 L1" x1="1800" y1="-6500" x2="1800" y2="-8250"/>
<path class="Lay0 L1" d="M 8350,-5600 A 250,250 0 0,0 8600,-5350"/>
<path class="Lay0 L1" d="M 10100,-5350 A 250,250 0 0,0 10350,-5600"/>
<path class="Lay0 L1" d="M 10350,-6600 A 250,250 0 0,0 10100,-6850"/>
<path class="Lay0 L1" d="M 8600,-6850 A 250,250 0 0,0 8350,-6600"/>
<line class="Lay0 L1" x1="1550" y1="-6750" x2="3550" y2="-6750"/>
<path class="Lay0 L1" d="M 1550,-6750 A 250,250 0 0,0 1800,-6500"/>
<path class="Lay0 L1" d="M 3300,-6500 A 250,250 0 0,0 3550,-6750"/>
<path class="Lay0 L1" d="M 3550,-8000 A 250,250 0 0,0 3300,-8250"/>
<path class="Lay0 L1" d="M 1800,-8250 A 250,250 0 0,0 1550,-8000"/>
<line class="Lay0 L1" x1="1550" y1="-6750" x2="1550" y2="-8000"/>
<line class="Lay0 L1" x1="3300" y1="-6500" x2="1800" y2="-6500"/>
<line class="Lay0 L1" x1="3300" y1="-8250" x2="1800" y2="-8250"/>
<line class="Lay0 L1" x1="3550" y1="-8000" x2="3550" y2="-6750"/>
<line class="Lay0 L2" x1="1950" y1="-6850" x2="2550" y2="-6850"/>
<line class="Lay0 L2" x1="2550" y1="-6850" x2="2550" y2="-6900"/>
<line class="Lay0 L2" x1="2550" y1="-6900" x2="3200" y2="-6900"/>
<line class="Lay0 L2" x1="3150" y1="-6900" x2="3150" y2="-7300"/>
<line class="Lay0 L2" x1="2550" y1="-6900" x2="2550" y2="-7350"/>
<line class="Lay0 L2" x1="1950" y1="-6850" x2="1950" y2="-7350"/>
<line class="Lay0 L2" x1="1900" y1="-7300" x2="2250" y2="-7650"/>
<line class="Lay0 L2" x1="2250" y1="-7650" x2="2600" y2="-7300"/>
<line class="Lay0 L2" x1="2500" y1="-7400" x2="3000" y2="-7400"/>
<line class="Lay0 L2" x1="3000" y1="-7400" x2="3200" y2="-7200"/>
<line class="Lay0 L2" x1="2250" y1="-7650" x2="2250" y2="-7750"/>
<line class="Lay0 L2" x1="2200" y1="-7600" x2="2050" y2="-7600"/>
<line class="Lay0 L2" x1="2050" y1="-7600" x2="2000" y2="-7550"/>
<line class="Lay0 L2" x1="2000" y1="-7550" x2="2000" y2="-7450"/>
<line class="Lay0 L2" x1="2300" y1="-7600" x2="2450" y2="-7600"/>
<line class="Lay0 L2" x1="2450" y1="-7600" x2="2500" y2="-7550"/>
<line class="Lay0 L2" x1="2500" y1="-7550" x2="2500" y2="-7450"/>
<line class="Lay0 L2" x1="2000" y1="-7900" x2="1950" y2="-7800"/>
<line class="Lay0 L2" x1="1950" y1="-7800" x2="2050" y2="-7850"/>
<line class="Lay0 L2" x1="2050" y1="-7850" x2="1950" y2="-7850"/>
<line class="Lay0 L2" x1="1950" y1="-7850" x2="2050" y2="-7800"/>
<line class="Lay0 L2" x1="2050" y1="-7800" x2="2000" y2="-7900"/>
<line class="Lay0 L2" x1="2700" y1="-7700" x2="2650" y2="-7600"/>
<line class="Lay0 L2" x1="2650" y1="-7600" x2="2750" y2="-7650"/>
<line class="Lay0 L2" x1="2750" y1="-7650" x2="2650" y2="-7650"/>
<line class="Lay0 L2" x1="2650" y1="-7650" x2="2750" y2="-7600"/>
<line class="Lay0 L2" x1="2750" y1="-7600" x2="2700" y2="-7700"/>
<path class="Lay0 L2" d="M 3050,-7930.2775637732 A 180.277563773199,180.277563773199 0 1,0 3150,-7600"/>
<path class="Lay0 L2" d="M 3050,-7930.29 A 173.636386574873,173.636386574873 0 0,0 3150,-7600.01"/>
<line class="Lay0 L2" x1="1950" y1="-7200" x2="2550" y2="-7200"/>
<path class="Lay0 L2" d="M 2219.25824035673,-7200 A 269.258240356725,269.258240356725 0 0,0 2050,-7450"/>
<path class="Lay0 L2" d="M 2457.15,-7432.12 A 250,250 0 0,0 2300,-7200"/>
<line class="Lay0 L2" x1="3200" y1="-7200" x2="3250" y2="-7150"/>
<line class="Lay0 L2" x1="3250" y1="-7150" x2="2550" y2="-7150"/>
<line class="Lay0 L2" x1="2650" y1="-7150" x2="2650" y2="-6900"/>
<line class="Lay0 L2" x1="2800" y1="-7150" x2="2800" y2="-6900"/>
<line class="Lay0 L2" x1="2950" y1="-7150" x2="2950" y2="-6900"/>
<line class="Lay0 L2" x1="2550" y1="-7050" x2="2650" y2="-7050"/>
<line class="Lay0 L2" x1="2650" y1="-7000" x2="2750" y2="-7000"/>
<line class="Lay0 L2" x1="2800" y1="-7100" x2="2950" y2="-7100"/>
<line class="Lay0 L2" x1="2800" y1="-7000" x2="2950" y2="-7000"/>
<line class="Lay0 L2" x1="2950" y1="-7050" x2="3150" y2="-7050"/>
<line class="Lay0 L2" x1="2650" y1="-7200" x2="2800" y2="-7350"/>
<line class="Lay0 L2" x1="2800" y1="-7350" x2="2950" y2="-7200"/>
<line class="Lay0 L2" x1="3823.03" y1="-8850" x2="4776.97" y2="-8850"/>
<path class="Lay0 L2" d="M 4591.42,-8850 A 150,150 0 1,0 4308.58,-8850"/>
<line class="Lay0 L2" x1="4476.05" y1="-9047.72" x2="4536.82" y2="-9392.4"/>
<line class="Lay0 L2" x1="4423.95" y1="-9047.72" x2="4363.18" y2="-9392.4"/>
<line class="Lay0 L2" x1="4375" y1="-9029.9" x2="4200" y2="-9333.01"/>
<line class="Lay0 L2" x1="4335.09" y1="-8996.42" x2="4066.98" y2="-9221.39"/>
<line class="Lay0 L2" x1="4309.05" y1="-8951.3" x2="3980.15" y2="-9071.01"/>
<line class="Lay0 L2" x1="4300" y1="-8900" x2="3950" y2="-8900"/>
<line class="Lay0 L2" x1="4789.9" y1="-8900" x2="4600" y2="-8900"/>
<line class="Lay0 L2" x1="4799.26" y1="-9027.12" x2="4590.95" y2="-8951.3"/>
<line class="Lay0 L2" x1="4770.57" y1="-9169" x2="4564.91" y2="-8996.42"/>
<line class="Lay0 L2" x1="4689.06" y1="-9314.06" x2="4525" y2="-9029.9"/>
<path class="Lay0 L2" d="M 4050,-8750 A 124.996199942238,124.996199942238 0 0,0 4250,-8750"/>
<path class="Lay0 L2" d="M 4250,-8750 A 124.996199942238,124.996199942238 0 0,0 4450,-8750"/>
<line class="Lay0 L2" x1="2150" y1="-7200" x2="2150" y2="-6850"/>
<line class="Lay0 L2" x1="2400" y1="-7200" x2="2400" y2="-6850"/>
<line class="Lay0 L2" x1="5800" y1="-8450" x2="6000" y2="-8600"/>
<line class="Lay0 L2" x1="6000" y1="-8600" x2="6100" y2="-8550"/>
<line class="Lay0 L2" x1="6100" y1="-8550" x2="6150" y2="-8450"/>
<line class="Lay0 L2" x1="6150" y1="-8450" x2="6200" y2="-8500"/>
<line class="Lay0 L2" x1="6200" y1="-8500" x2="6250" y2="-8600"/>
<line class="Lay0 L2" x1="6250" y1="-8600" x2="6300" y2="-8650"/>
<line class="Lay0 L2" x1="6300" y1="-8650" x2="6431.14" y2="-8614.97"/>
<line class="Lay0 L2" x1="6431.14" y1="-8614.97" x2="6450" y2="-8550"/>
<line class="Lay0 L2" x1="6450" y1="-8550" x2="6550" y2="-8450"/>
<line class="Lay0 L2" x1="6550" y1="-8450" x2="6700" y2="-8350"/>
<line class="Lay0 L2" x1="6550" y1="-8500" x2="6650" y2="-8600"/>
<line class="Lay0 L2" x1="6650" y1="-8600" x2="6800" y2="-8600"/>
<line class="Lay0 L2" x1="6800" y1="-8600" x2="6900" y2="-8500"/>
<line class="Lay0 L2" x1="6900" y1="-8500" x2="6950" y2="-8450"/>
<line class="Lay0 L2" x1="6950" y1="-8450" x2="7100" y2="-8450"/>
<line class="Lay0 L2" x1="7100" y1="-8450" x2="7150" y2="-8500"/>
<line class="Lay0 L2" x1="7150" y1="-8500" x2="7250" y2="-8500"/>
<line class="Lay0 L2" x1="7250" y1="-8500" x2="7350" y2="-8450"/>
<line class="Lay0 L2" x1="7350" y1="-8450" x2="7450" y2="-8450"/>
<line class="Lay0 L2" x1="7450" y1="-8450" x2="7500" y2="-8500"/>
<line class="Lay0 L2" x1="7700" y1="-8500" x2="8000" y2="-8500"/>
<line class="Lay0 L2" x1="8000" y1="-8500" x2="8200" y2="-8450"/>
<line class="Lay0 L2" x1="8200" y1="-8450" x2="8400" y2="-8550"/>
<line class="Lay0 L2" x1="8400" y1="-8550" x2="8600" y2="-8500"/>
<line class="Lay0 L2" x1="8600" y1="-8500" x2="8750" y2="-8500"/>
<line class="Lay0 L2" x1="8800" y1="-8483.33" x2="8750" y2="-8500"/>
<line class="Lay0 L2" x1="7500" y1="-8500" x2="7650" y2="-8450"/>
<line class="Lay0 L2" x1="7650" y1="-8450" x2="7750" y2="-8500"/>
<line class="Lay0 L2" x1="7023.46" y1="-8636.31" x2="7074.01" y2="-8694.09"/>
<line class="Lay0 L2" x1="7074.01" y1="-8694.09" x2="7167.9" y2="-8672.42"/>
<line class="Lay0 L2" x1="7167.9" y1="-8672.42" x2="7204.01" y2="-8679.64"/>
<line class="Lay0 L2" x1="7204.01" y1="-8679.64" x2="7240.12" y2="-8679.64"/>
<line class="Lay0 L2" x1="7240.12" y1="-8679.64" x2="7326.79" y2="-8665.2"/>
<line class="Lay0 L2" x1="7326.79" y1="-8665.2" x2="7334.01" y2="-8650.75"/>
<line class="Lay0 L2" x1="7334.01" y1="-8650.75" x2="7370.12" y2="-8571.31"/>
<line class="Lay0 L2" x1="7370.12" y1="-8571.31" x2="7326.79" y2="-8571.31"/>
<line class="Lay0 L2" x1="7326.79" y1="-8571.31" x2="7305.12" y2="-8607.42"/>
<line class="Lay0 L2" x1="7305.12" y1="-8607.42" x2="7276.23" y2="-8629.09"/>
<line class="Lay0 L2" x1="7276.23" y1="-8629.09" x2="7196.79" y2="-8600.2"/>
<line class="Lay0 L2" x1="7196.79" y1="-8600.2" x2="7139.01" y2="-8600.2"/>
<line class="Lay0 L2" x1="7139.01" y1="-8600.2" x2="7045.12" y2="-8578.53"/>
<line class="Lay0 L2" x1="7045.12" y1="-8578.53" x2="7059.57" y2="-8621.86"/>
<line class="Lay0 L2" x1="7059.57" y1="-8621.86" x2="7045.12" y2="-8672.42"/>
<line class="Lay0 L2" x1="7586.79" y1="-8643.53" x2="7687.9" y2="-8665.2"/>
<line class="Lay0 L2" x1="7687.9" y1="-8665.2" x2="7774.57" y2="-8643.53"/>
<line class="Lay0 L2" x1="7774.57" y1="-8643.53" x2="7832.35" y2="-8629.09"/>
<line class="Lay0 L2" x1="7832.35" y1="-8629.09" x2="7933.46" y2="-8657.98"/>
<line class="Lay0 L2" x1="7933.46" y1="-8657.98" x2="7998.46" y2="-8672.42"/>
<line class="Lay0 L2" x1="7998.46" y1="-8672.42" x2="7984.02" y2="-8621.86"/>
<line class="Lay0 L2" x1="7984.02" y1="-8621.86" x2="7940.68" y2="-8621.86"/>
<line class="Lay0 L2" x1="7940.68" y1="-8621.86" x2="7745.68" y2="-8578.53"/>
<line class="Lay0 L2" x1="7745.68" y1="-8578.53" x2="7702.35" y2="-8592.97"/>
<line class="Lay0 L2" x1="7702.35" y1="-8592.97" x2="7680.68" y2="-8643.53"/>
<line class="Lay0 L2" x1="7680.68" y1="-8643.53" x2="7586.79" y2="-8636.31"/>
<line class="Lay0 L2" x1="8251.24" y1="-8657.98" x2="8330.69" y2="-8679.64"/>
<line class="Lay0 L2" x1="8330.69" y1="-8679.64" x2="8395.69" y2="-8650.75"/>
<line class="Lay0 L2" x1="8395.69" y1="-8650.75" x2="8258.46" y2="-8527.97"/>
<line class="Lay0 L2" x1="8258.46" y1="-8527.97" x2="8207.91" y2="-8629.09"/>
<line class="Lay0 L2" x1="8207.91" y1="-8629.09" x2="8027.35" y2="-8621.86"/>
<line class="Lay0 L2" x1="8027.35" y1="-8621.86" x2="8063.46" y2="-8665.2"/>
<line class="Lay0 L2" x1="8063.46" y1="-8665.2" x2="8215.13" y2="-8657.98"/>
<line class="Lay0 L2" x1="8215.13" y1="-8657.98" x2="8244.02" y2="-8672.42"/>
<line class="Lay0 L2" x1="8233.69" y1="-8542.01" x2="8136.07" y2="-8557.63"/>
<line class="Lay0 L2" x1="8136.07" y1="-8557.63" x2="8077.5" y2="-8596.67"/>
<line class="Lay0 L2" x1="8077.5" y1="-8596.67" x2="8046.26" y2="-8620.1"/>
<line class="Lay0 L2" x1="8046.26" y1="-8620.1" x2="8046.26" y2="-8624.01"/>
<line class="Lay0 L2" x1="7663.6" y1="-8584.96" x2="7581.6" y2="-8639.63"/>
<line class="Lay0 L2" x1="7316.07" y1="-8573.25" x2="7230.17" y2="-8565.44"/>
<line class="Lay0 L2" x1="7230.17" y1="-8565.44" x2="7202.84" y2="-8592.77"/>
<line class="Lay0 L2" x1="7202.84" y1="-8592.77" x2="7085.7" y2="-8581.06"/>
<path class="Lay0 L2" d="M 8460.44,-5654.17 A 189.604700363678,189.604700363678 0 0,0 8618.68,-5463"/>
<path class="Lay0 L2" d="M 8542.65,-5699.18 A 157.353561764582,157.353561764582 0 0,0 8679.03,-5544.05"/>
<polyline class="Lay0 L2" points=" 9923.35,-6533.43 9997.51,-6533.43 9997.51,-6602.96 9923.35,-6602.96 9923.35,-6533.43"/>
<line class="Lay0 L1" x1="10605.28" y1="-6947.17" x2="10455.28" y2="-7097.17"/>
<line class="Lay0 L1" x1="8255.28" y1="-7097.17" x2="8105.28" y2="-6947.17"/>
<line class="Lay0 L1" x1="8105.28" y1="-5247.17" x2="8255.28" y2="-5097.17"/>
<line class="Lay0 L1" x1="10455.28" y1="-5097.17" x2="10605.28" y2="-5247.17"/>
<line class="Lay0 L1" x1="10600" y1="-5241.89" x2="10600" y2="-6952.45"/>
<line class="Lay0 L1" x1="8252.45" y1="-5100" x2="10458.11" y2="-5100"/>
<line class="Lay0 L1" x1="8100" y1="-6941.89" x2="8100" y2="-5252.45"/>
<line class="Lay0 L1" x1="10452.45" y1="-7100" x2="8258.11" y2="-7100"/>
<line class="Lay0 L1" x1="8350" y1="-5600" x2="8350" y2="-6600"/>
<line class="Lay0 L1" x1="10100" y1="-5350" x2="8600" y2="-5350"/>
<line class="Lay0 L1" x1="10100" y1="-6850" x2="8600" y2="-6850"/>
<line class="Lay0 L1" x1="10350" y1="-6600" x2="10350" y2="-5600"/>
<line class="Lay0 L2" x1="10305.28" y1="-6847.17" x2="10355.28" y2="-6847.17"/>
<line class="Lay0 L2" x1="10355.28" y1="-6847.17" x2="10355.28" y2="-6797.17"/>
<line class="Lay0 L2" x1="10355.28" y1="-5397.17" x2="10355.28" y2="-5347.17"/>
<line class="Lay0 L2" x1="10355.28" y1="-5347.17" x2="10305.28" y2="-5347.17"/>
<line class="Lay0 L2" x1="8405.28" y1="-5347.17" x2="8355.28" y2="-5347.17"/>
<line class="Lay0 L2" x1="8355.28" y1="-5347.17" x2="8355.28" y2="-5397.17"/>
<line class="Lay0 L2" x1="8355.28" y1="-6797.17" x2="8355.28" y2="-6847.17"/>
<line class="Lay0 L2" x1="8355.28" y1="-6847.17" x2="8405.28" y2="-6847.17"/>
<polyline class="Lay0 L2" points=" 10405.28,-5597.17 10555.28,-5597.17 10555.28,-5647.17 10405.28,-5647.17 10405.28,-5597.17"/>
<polyline class="Lay0 L2" points=" 10405.28,-5697.17 10555.28,-5697.17 10555.28,-5847.17 10405.28,-5847.17 10405.28,-5697.17"/>
<polyline class="Lay0 L2" points=" 10405.28,-5897.17 10555.28,-5897.17 10555.28,-5947.17 10405.28,-5947.17 10405.28,-5897.17"/>
<polyline class="Lay0 L2" points=" 10405.28,-5997.17 10555.28,-5997.17 10555.28,-6047.17 10405.28,-6047.17 10405.28,-5997.17"/>
<polyline class="Lay0 L2" points=" 10405.28,-6097.17 10555.28,-6097.17 10555.28,-6147.17 10405.28,-6147.17 10405.28,-6097.17"/>
<line class="Lay0 L2" x1="8455.28" y1="-5097.17" x2="8505.28" y2="-5047.17"/>
<line class="Lay0 L2" x1="8505.28" y1="-5047.17" x2="8605.28" y2="-5047.17"/>
<line class="Lay0 L2" x1="8605.28" y1="-5047.17" x2="8655.28" y2="-5097.17"/>
<line class="Lay0 L2" x1="10205.28" y1="-5097.17" x2="10155.28" y2="-5047.17"/>
<line class="Lay0 L2" x1="10155.28" y1="-5047.17" x2="10055.28" y2="-5047.17"/>
<line class="Lay0 L2" x1="10055.28" y1="-5047.17" x2="10005.28" y2="-5097.17"/>
<path class="Lay0 L1" d="M 9050,-8750 A 250,250 0 0,0 8800,-9000"/>
<path class="Lay0 L1" d="M 5800,-9000 A 250,250 0 0,0 5550,-8750"/>
<path class="Lay0 L1" d="M 5550,-8250 A 250,250 0 0,0 5800,-8000"/>
<path class="Lay0 L1" d="M 8800,-8000 A 250,250 0 0,0 9050,-8250"/>
<line class="Lay0 L1" x1="9050" y1="-8250" x2="9050" y2="-8750"/>
<line class="Lay0 L1" x1="5800" y1="-8000" x2="8800" y2="-8000"/>
<line class="Lay0 L1" x1="5800" y1="-9000" x2="8800" y2="-9000"/>
<line class="Lay0 L1" x1="5550" y1="-8750" x2="5550" y2="-8250"/>
<line class="Lay0 L1" x1="1950" y1="-3300" x2="3650" y2="-3300"/>
<line class="Lay0 L1" x1="3735" y1="-3385" x2="3735" y2="-4320"/>
<line class="Lay0 L1" x1="3650" y1="-4405" x2="1950" y2="-4405"/>
<path class="Lay0 L1" d="M 3735,-4320 A 85,85 0 0,0 3650,-4405"/>
<path class="Lay0 L1" d="M 1950,-4405 A 85,85 0 0,0 1865,-4320"/>
<path class="Lay0 L1" d="M 1865,-3385 A 85,85 0 0,0 1950,-3300"/>
<path class="Lay0 L1" d="M 3650,-3300 A 85,85 0 0,0 3735,-3385"/>
<line class="Lay0 L1" x1="1950" y1="-4235" x2="1950" y2="-3470"/>
<line class="Lay0 L1" x1="2035" y1="-3385" x2="3565" y2="-3385"/>
<line class="Lay0 L1" x1="3650" y1="-3470" x2="3650" y2="-4235"/>
<line class="Lay0 L1" x1="3565" y1="-4320" x2="2035" y2="-4320"/>
<path class="Lay0 L1" d="M 3650,-4235 A 85,85 0 0,0 3565,-4320"/>
<path class="Lay0 L1" d="M 2035,-4320 A 85,85 0 0,0 1950,-4235"/>
<path class="Lay0 L1" d="M 1950,-3470 A 85,85 0 0,0 2035,-3385"/>
<path class="Lay0 L1" d="M 3565,-3385 A 85,85 0 0,0 3650,-3470"/>
<line class="Lay0 L1" x1="1865" y1="-3385" x2="1865" y2="-4320"/>
<line class="Lay0 L2" x1="2135" y1="-3385" x2="3070" y2="-4320"/>
<line class="Lay0 L2" x1="2335" y1="-3385" x2="3270" y2="-4320"/>
<line class="Lay0 L2" x1="2535" y1="-3385" x2="3470" y2="-4320"/>
<line class="Lay0 L2" x1="3650" y1="-4100" x2="2935" y2="-3385"/>
<line class="Lay0 L2" x1="3650" y1="-3900" x2="3135" y2="-3385"/>
<line class="Lay0 L2" x1="3650" y1="-3700" x2="3335" y2="-3385"/>
<line class="Lay0 L2" x1="3650" y1="-3500" x2="3535" y2="-3385"/>
<line class="Lay0 L2" x1="3634.27" y1="-4284.27" x2="2735" y2="-3385"/>
<line class="Lay0 L2" x1="2070" y1="-4320" x2="1950" y2="-4200"/>
<line class="Lay0 L2" x1="2270" y1="-4320" x2="1950" y2="-4000"/>
<line class="Lay0 L2" x1="2470" y1="-4320" x2="1950" y2="-3800"/>
<line class="Lay0 L2" x1="2670" y1="-4320" x2="1950" y2="-3600"/>
<line class="Lay0 L2" x1="1967.86" y1="-3417.87" x2="2870" y2="-4320"/>
<line class="Lay0 L2" x1="3465" y1="-3385" x2="2530" y2="-4320"/>
<line class="Lay0 L2" x1="3265" y1="-3385" x2="2330" y2="-4320"/>
<line class="Lay0 L2" x1="3065" y1="-3385" x2="2130" y2="-4320"/>
<line class="Lay0 L2" x1="1950" y1="-4100" x2="2665" y2="-3385"/>
<line class="Lay0 L2" x1="1950" y1="-3900" x2="2465" y2="-3385"/>
<line class="Lay0 L2" x1="1950" y1="-3700" x2="2265" y2="-3385"/>
<line class="Lay0 L2" x1="1950" y1="-3500" x2="2065" y2="-3385"/>
<line class="Lay0 L2" x1="1965.73" y1="-4284.27" x2="2865" y2="-3385"/>
<line class="Lay0 L2" x1="3530" y1="-4320" x2="3650" y2="-4200"/>
<line class="Lay0 L2" x1="3330" y1="-4320" x2="3650" y2="-4000"/>
<line class="Lay0 L2" x1="3130" y1="-4320" x2="3650" y2="-3800"/>
<line class="Lay0 L2" x1="2930" y1="-4320" x2="3650" y2="-3600"/>
<line class="Lay0 L2" x1="3632.14" y1="-3417.87" x2="2730" y2="-4320"/>
<polyline class="Lay0 L2" points=" 1835,-4885 3735,-4885 3735,-5285 1835,-5285 1835,-4885"/>
<polyline class="Lay0 L2" points=" 1835,-5385 3735,-5385 3735,-5685 1835,-5685 1835,-5385"/>
<circle class="Lay0 L2" cx="3487.5" cy="-5537.5" r="50"/>
<circle class="Lay0 L2" cx="3287.5" cy="-5537.5" r="50"/>
<circle class="Lay0 L2" cx="3087.5" cy="-5537.5" r="50"/>
<line class="Lay0 L2" x1="2037.5" y1="-5187.5" x2="2037.5" y2="-4987.5"/>
<line class="Lay0 L2" x1="2187.5" y1="-5187.5" x2="2187.5" y2="-4987.5"/>
<line class="Lay0 L2" x1="2337.5" y1="-5187.5" x2="2337.5" y2="-4987.5"/>
<line class="Lay0 L2" x1="2487.5" y1="-5187.5" x2="2487.5" y2="-4987.5"/>
<line class="Lay0 L2" x1="2637.5" y1="-5187.5" x2="2637.5" y2="-4987.5"/>
<line class="Lay0 L2" x1="2787.5" y1="-5187.5" x2="2787.5" y2="-4987.5"/>
<polyline class="Lay0 L2" points=" 1987.5,-5137.5 2087.5,-5137.5 2087.5,-5187.5 1987.5,-5187.5 1987.5,-5137.5"/>
<polyline class="Lay0 L2" points=" 2137.5,-5087.5 2237.5,-5087.5 2237.5,-5137.5 2137.5,-5137.5 2137.5,-5087.5"/>
<polyline class="Lay0 L2" points=" 2287.5,-5037.5 2387.5,-5037.5 2387.5,-5087.5 2287.5,-5087.5 2287.5,-5037.5"/>
<polyline class="Lay0 L2" points=" 2437.5,-5087.5 2537.5,-5087.5 2537.5,-5137.5 2437.5,-5137.5 2437.5,-5087.5"/>
<polyline class="Lay0 L2" points=" 2587.5,-5037.5 2687.5,-5037.5 2687.5,-5087.5 2587.5,-5087.5 2587.5,-5037.5"/>
<polyline class="Lay0 L2" points=" 2737.5,-5087.5 2837.5,-5087.5 2837.5,-5137.5 2737.5,-5137.5 2737.5,-5087.5"/>
<line class="Lay0 L1" x1="8450" y1="-1875" x2="10150" y2="-1875"/>
<line class="Lay0 L1" x1="10235" y1="-1960" x2="10235" y2="-2895"/>
<line class="Lay0 L1" x1="10150" y1="-2980" x2="8450" y2="-2980"/>
<path class="Lay0 L1" d="M 10235,-2895 A 85,85 0 0,0 10150,-2980"/>
<path class="Lay0 L1" d="M 8450,-2980 A 85,85 0 0,0 8365,-2895"/>
<path class="Lay0 L1" d="M 8365,-1960 A 85,85 0 0,0 8450,-1875"/>
<path class="Lay0 L1" d="M 10150,-1875 A 85,85 0 0,0 10235,-1960"/>
<line class="Lay0 L1" x1="8450" y1="-2810" x2="8450" y2="-2045"/>
<line class="Lay0 L1" x1="8535" y1="-1960" x2="10065" y2="-1960"/>
<line class="Lay0 L1" x1="10150" y1="-2045" x2="10150" y2="-2810"/>
<line class="Lay0 L1" x1="10065" y1="-2895" x2="8535" y2="-2895"/>
<path class="Lay0 L1" d="M 10150,-2810 A 85,85 0 0,0 10065,-2895"/>
<path class="Lay0 L1" d="M 8535,-2895 A 85,85 0 0,0 8450,-2810"/>
<path class="Lay0 L1" d="M 8450,-2045 A 85,85 0 0,0 8535,-1960"/>
<path class="Lay0 L1" d="M 10065,-1960 A 85,85 0 0,0 10150,-2045"/>
<line class="Lay0 L1" x1="8365" y1="-1960" x2="8365" y2="-2895"/>
<line class="Lay0 L2" x1="8635" y1="-1960" x2="9570" y2="-2895"/>
<line class="Lay0 L2" x1="8835" y1="-1960" x2="9770" y2="-2895"/>
<line class="Lay0 L2" x1="9035" y1="-1960" x2="9970" y2="-2895"/>
<line class="Lay0 L2" x1="10150" y1="-2675" x2="9435" y2="-1960"/>
<line class="Lay0 L2" x1="10150" y1="-2475" x2="9635" y2="-1960"/>
<line class="Lay0 L2" x1="10150" y1="-2275" x2="9835" y2="-1960"/>
<line class="Lay0 L2" x1="10150" y1="-2075" x2="10035" y2="-1960"/>
<line class="Lay0 L2" x1="10134.27" y1="-2859.27" x2="9235" y2="-1960"/>
<line class="Lay0 L2" x1="8570" y1="-2895" x2="8450" y2="-2775"/>
<line class="Lay0 L2" x1="8770" y1="-2895" x2="8450" y2="-2575"/>
<line class="Lay0 L2" x1="8970" y1="-2895" x2="8450" y2="-2375"/>
<line class="Lay0 L2" x1="9170" y1="-2895" x2="8450" y2="-2175"/>
<line class="Lay0 L2" x1="8467.86" y1="-1992.87" x2="9370" y2="-2895"/>
<line class="Lay0 L2" x1="9965" y1="-1960" x2="9030" y2="-2895"/>
<line class="Lay0 L2" x1="9765" y1="-1960" x2="8830" y2="-2895"/>
<line class="Lay0 L2" x1="9565" y1="-1960" x2="8630" y2="-2895"/>
<line class="Lay0 L2" x1="8450" y1="-2675" x2="9165" y2="-1960"/>
<line class="Lay0 L2" x1="8450" y1="-2475" x2="8965" y2="-1960"/>
<line class="Lay0 L2" x1="8450" y1="-2275" x2="8765" y2="-1960"/>
<line class="Lay0 L2" x1="8450" y1="-2075" x2="8565" y2="-1960"/>
<line class="Lay0 L2" x1="8465.73" y1="-2859.27" x2="9365" y2="-1960"/>
<line class="Lay0 L2" x1="10030" y1="-2895" x2="10150" y2="-2775"/>
<line class="Lay0 L2" x1="9830" y1="-2895" x2="10150" y2="-2575"/>
<line class="Lay0 L2" x1="9630" y1="-2895" x2="10150" y2="-2375"/>
<line class="Lay0 L2" x1="9430" y1="-2895" x2="10150" y2="-2175"/>
<line class="Lay0 L2" x1="10132.14" y1="-1992.87" x2="9230" y2="-2895"/>
<path class="Lay0 L2" d="M 4862.51,-4837.49 A 398.42582940252,398.42582940252 0 0,0 4712.5,-4237.5"/>
<path class="Lay0 L2" d="M 4862.5,-4837.5 A 104.65399075604,104.65399075604 0 0,0 4787.5,-5024.99"/>
<path class="Lay0 L2" d="M 5237.5,-4237.5 A 398.42582940252,398.42582940252 0 0,0 5087.49,-4837.49"/>
<path class="Lay0 L2" d="M 5162.5,-5024.99 A 104.65399075604,104.65399075604 0 0,0 5087.5,-4837.5"/>
<path class="Lay0 L2" d="M 4787.5,-5100 A 37.5,37.5 0 0,0 4787.5,-5025"/>
<path class="Lay0 L2" d="M 5162.5,-5025 A 37.5,37.5 0 0,0 5162.5,-5100"/>
<line class="Lay0 L2" x1="4787.5" y1="-5100" x2="5162.5" y2="-5100"/>
<line class="Lay0 L2" x1="4712.5" y1="-4237.5" x2="5237.5" y2="-4237.5"/>
<path class="Lay0 L2" d="M 5575,-4537.5 A 199.21291470126,199.21291470126 0 0,0 5500,-4237.5"/>
<path class="Lay0 L2" d="M 5575,-4537.5 A 52.32699537802,52.32699537802 0 0,0 5537.5,-4631.25"/>
<path class="Lay0 L2" d="M 5762.5,-4237.5 A 199.21291470126,199.21291470126 0 0,0 5687.5,-4537.5"/>
<path class="Lay0 L2" d="M 5725,-4631.25 A 52.32699537802,52.32699537802 0 0,0 5687.5,-4537.5"/>
<path class="Lay0 L2" d="M 5537.5,-4668.75 A 18.75,18.75 0 0,0 5537.5,-4631.25"/>
<path class="Lay0 L2" d="M 5725,-4631.25 A 18.75,18.75 0 0,0 5725,-4668.75"/>
<line class="Lay0 L2" x1="5537.5" y1="-4668.75" x2="5725" y2="-4668.75"/>
<line class="Lay0 L2" x1="5500" y1="-4237.5" x2="5762.5" y2="-4237.5"/>
</g>
</svg>
